<?xml version="1.0" encoding="utf-8"?>
<!-- Generator: Adobe Illustrator 19.2.0, SVG Export Plug-In . SVG Version: 6.00 Build 0)  -->
<svg version="1.1" id="Слой_1" xmlns="http://www.w3.org/2000/svg" xmlns:xlink="http://www.w3.org/1999/xlink" x="0px" y="0px"
	 viewBox="0 0 351.8 390.6" style="enable-background:new 0 0 351.8 390.6;" xml:space="preserve">
<style type="text/css">
	.st0{fill:#4D4D4E;}
	.st1{fill:none;stroke:#4D4D4E;stroke-miterlimit:10;}
</style>
<title>d-new</title>
<g>
	<g>
		<path class="st0" d="M351.5,4.5l0.2,259.4l0.1,64.8l0,32.4l0,16.2l0,4.1l0,1l0,0.5c0,0.1,0,0.1,0,0.3c0,0.2-0.1,0.3-0.3,0.4
			c-0.1,0.1-0.4,0.1-0.4,0.1l-0.3,0l-0.5,0l-1,0l-8.1,0l-64.8,0.1l-32.4,0l-16.2,0l-8.1,0l-0.5,0c-0.2,0-0.4-0.1-0.6-0.3
			c-0.1-0.1-0.1-0.2-0.1-0.3c0-0.1,0-0.2,0-0.2l0.1-1l0.1-2l0.1-2l0-0.5c0-0.2,0-0.4,0-0.5l0.1-0.5l0-0.2c0,0,0-0.1,0,0
			c-0.1,0.2,0.6,0.4,0.5,0.2l0.1-0.1c-1.2,1.1-2.5,2-4,2.8c-1.4,0.7-2.9,1.4-4.3,2c-2.9,1.3-5.9,2.4-8.9,3.3
			c-6.1,1.8-12.3,3.1-18.6,4.1c-12.6,1.9-25.3,2.3-38,1.9c-12.7-0.4-25.3-1.5-37.8-4.1c-12.4-2.5-24.6-6.6-35.8-12.5
			c-11.2-6-21.4-13.7-30.2-22.9c-4.4-4.6-8.4-9.5-12.2-14.6c-0.9-1.3-1.8-2.6-2.7-3.9l-1.3-2l-1.3-2l-2.5-4l-2.3-4.1l-1.2-2.1
			l-1.1-2.1l-2.2-4.2l-2-4.3c-0.7-1.4-1.4-2.9-2-4.3c-1.2-2.9-2.5-5.8-3.6-8.8c-1.1-3-2-6-2.9-9.1c-3.3-12.3-4.6-25-4.6-37.7
			c0.1-12.7,1.6-25.3,4.3-37.7c2.8-12.4,6.9-24.5,12.4-35.9c5.5-11.4,12.6-22.1,21.2-31.4c8.6-9.3,18.8-17.1,29.8-23.3
			c11.1-6.2,23-10.8,35.3-14c12.3-3.2,24.9-5,37.6-5.3c12.7-0.2,25.4,0.5,37.9,2.8c6.2,1.1,12.4,2.6,18.5,4.5l4.5,1.6
			c1.5,0.6,3,1.1,4.4,1.8c2.9,1.3,5.8,2.6,8.5,4.4l-0.3,0.2l0.3-58.1l0.2-29.1l0.1-14.5l0-7.3c0-1.2,0-2.4,0.1-3.6
			c0.1-0.6,0.1-1.2,0.3-1.9c0,0,0.1-0.1,0.1-0.2c0,0,0.1-0.1,0.1-0.1c0.1,0,0.2,0,0.2,0c0.3,0.1,0.3,0.2,0.3,0.3
			c0.1,0.2,0.1,0.3,0.1,0.5c0.1,0.3,0.1,0.6,0.1,0.9c0.1,1.2,0.1,2.4,0.1,3.7l0,3.6l0,7.3l0,14.5l0,29.1l0,58.1l0,0.8l-0.6-0.6
			c-2.2-2.1-5.1-3.7-7.9-5.1c-2.9-1.3-5.8-2.5-8.9-3.5c-6.1-2-12.3-3.5-18.6-4.7c-12.6-2.2-25.3-3.8-38.1-3.4
			c-12.8,0.3-25.5,2.1-37.9,5.3c-12.4,3.2-24.4,7.8-35.6,14c-11.2,6.2-21.4,14.1-30,23.5c-8.6,9.5-15.4,20.4-20.8,32
			c-2.7,5.8-5,11.8-6.9,17.8c-1.9,6.1-3.6,12.3-4.9,18.5c-1.3,6.3-2.3,12.6-2.9,18.9c-0.6,6.4-0.9,12.7-0.9,19.1
			c0.1,6.4,0.6,12.8,1.5,19.1c0.9,6.3,2.2,12.6,4.1,18.7c4.1,12.1,9.5,23.8,16.1,34.7c6.6,10.9,14.4,21.2,23.8,29.9
			c9.3,8.7,20,15.9,31.6,21.3c2.9,1.4,5.8,2.7,8.8,3.8c1.5,0.6,3,1.2,4.5,1.6c1.5,0.5,3.1,1,4.6,1.4c6.1,1.7,12.4,3,18.7,4
			c6.3,1,12.7,1.7,19,2.2c6.4,0.5,12.8,0.8,19.2,0.8c12.8,0,25.6-1.2,38.1-3.8c6.2-1.4,12.4-3.2,18.2-5.7c2.9-1.3,5.8-2.6,8.3-4.6
			c0.3-0.2,0.6-0.5,1-0.7c0.1,0,0.1,0,0.2-0.1c0.2-0.1,0.3-0.1,0.5,0c0.3,0.1,0.5,0.4,0.5,0.7l0,0.6l-0.1,2.4l-0.1,4.8l0,0.2
			c0,0,0,0,0-0.2c0-0.2-0.2-0.3-0.2-0.3c-0.1,0-0.1,0,0,0l0.1,0l0.5,0l1,0l2,0l4,0l8,0l16,0l32-0.1l64-0.2l1,0l0.5,0l0.1,0
			c0,0-0.1,0-0.1,0c0,0-0.1,0-0.1,0.1c0,0,0,0.1,0,0l0-2l0-4l0-8l0.1-16l0.1-32l0.2-64l0.4-128l0.2-64l0.1-32l0.1-16l0-8
			c0-1.3,0-2.7,0-4c0-0.3,0-0.7,0.1-1c0-0.2,0-0.3,0.1-0.5c0-0.1,0.1-0.1,0.2,0c0,0,0.1,0.1,0.1,0.1c0,0.1,0.1,0.2,0.1,0.2
			C351.4,3.1,351.5,3.8,351.5,4.5z M351.4,4.5c0-0.7-0.1-1.3-0.3-2c0-0.1,0-0.2-0.1-0.2c0-0.1-0.1-0.1-0.1-0.1
			c-0.1,0.1-0.1,0.3-0.1,0.5c0,0.3-0.1,0.7-0.1,1c0,1.3,0,2.7,0,4l0,8l0,16l-0.1,32l-0.1,64l-0.2,128l-0.1,64l-0.1,32l0,16l0,8l0,4
			l0,2c0,0,0,0.2,0,0.3c0,0.1-0.1,0.2-0.2,0.3c-0.1,0.1-0.2,0.1-0.3,0.1l-0.1,0l-0.5,0l-1,0l-64,0.3l-32,0.1l-16,0.1l-8,0l-4,0l-2,0
			l-1,0l-0.5,0l-0.1,0c-0.1,0-0.2,0-0.3,0c-0.1,0-0.4-0.2-0.4-0.4c0-0.2,0-0.3,0-0.4l0,0.2l0.1-4.8l0.1-2.4l0-0.6
			c0,0.1,0.1,0.2,0.2,0.3c0.1,0,0.1,0,0.2,0c0,0-0.1,0-0.1,0c-0.3,0.2-0.6,0.4-0.9,0.7c-0.6,0.5-1.3,1-2,1.4
			c-0.7,0.5-1.4,0.9-2.1,1.2c-1.4,0.8-2.9,1.4-4.4,2.1c-5.9,2.5-12.1,4.3-18.4,5.7c-12.6,2.6-25.4,3.8-38.3,3.9
			c-6.4,0-12.8-0.3-19.2-0.8c-6.4-0.5-12.8-1.2-19.1-2.2c-6.3-1-12.6-2.3-18.8-4c-1.6-0.4-3.1-0.9-4.6-1.4c-1.6-0.5-3-1.1-4.5-1.7
			c-3-1.2-5.9-2.5-8.8-3.9c-11.6-5.5-22.4-12.7-31.8-21.5c-9.4-8.8-17.3-19.1-23.9-30.1c-6.6-11-12-22.7-16.2-34.9
			c-1.9-6.1-3.3-12.4-4.2-18.8c-0.9-6.4-1.4-12.8-1.5-19.2c-0.1-6.4,0.2-12.8,0.9-19.2c0.6-6.4,1.6-12.7,2.9-19
			c1.3-6.3,2.9-12.5,4.9-18.6c1.9-6.1,4.2-12.1,7-18c5.4-11.6,12.3-22.6,20.9-32.2c8.7-9.5,19-17.5,30.2-23.7
			c11.2-6.2,23.3-10.9,35.8-14c12.4-3.1,25.2-4.9,38.1-5.2c6.4-0.2,12.9,0.1,19.2,0.7c3.2,0.4,6.4,0.7,9.5,1.2l4.8,0.7l4.7,0.8
			c6.3,1.2,12.6,2.7,18.7,4.7c3.1,1,6,2.2,9,3.6c2.9,1.4,5.7,3,8.2,5.3l-0.6,0.2l0-58.1l0-29.1l0-14.5l0-7.3l0-3.6
			c0-1.2,0-2.4-0.1-3.6c0-0.3-0.1-0.6-0.1-0.9c0-0.1-0.1-0.3-0.1-0.4c0,0-0.1-0.1,0,0c0,0,0.1,0,0.1,0c0,0,0,0,0,0c0,0,0,0,0,0
			c-0.2,0.4-0.2,1.1-0.3,1.7c-0.1,1.2,0,2.4-0.1,3.6l0,7.3l-0.1,14.5l-0.2,29.1l-0.4,58.1l0,0.4l-0.3-0.2c-2.6-1.7-5.5-3.1-8.4-4.3
			c-1.4-0.7-2.9-1.2-4.4-1.8l-4.5-1.6c-6-2-12.2-3.4-18.4-4.5c-12.4-2.3-25.1-3-37.8-2.8c-12.6,0.3-25.2,2.2-37.5,5.3
			c-6.1,1.6-12.2,3.5-18,5.8c-5.9,2.3-11.6,5-17.1,8.1c-11,6.2-21.2,14-29.7,23.3c-8.6,9.3-15.6,20-21.1,31.4
			c-5.5,11.4-9.6,23.4-12.4,35.8c-2.8,12.3-4.2,25-4.3,37.6c0,12.6,1.3,25.3,4.6,37.5c0.8,3,1.8,6.1,2.9,9c1.1,3,2.4,5.9,3.6,8.8
			c0.6,1.5,1.3,2.9,2,4.3l2,4.3l2.2,4.2l1.1,2.1l1.2,2.1l2.3,4.1l2.5,4l1.3,2l1.3,2c0.9,1.3,1.8,2.6,2.7,3.9
			c3.7,5.1,7.8,10,12.1,14.5c8.7,9.1,18.9,16.8,30.1,22.7c11.2,5.9,23.3,9.9,35.7,12.4c12.4,2.5,25,3.6,37.7,4
			c12.6,0.4,25.3,0,37.8-1.9c6.2-0.9,12.4-2.2,18.5-4.1c3-0.9,6-2,8.9-3.3c1.4-0.6,2.9-1.3,4.3-2c1.4-0.7,2.7-1.6,3.8-2.6l0.1-0.1
			c0-0.2,0.8,0,0.7,0.3c0,0.2,0,0.2,0,0.3l0,0.3l-0.1,0.5c0,0.2,0,0.3,0,0.5l0,0.5l-0.1,2l-0.1,2l-0.1,1c0,0.1,0,0.1,0,0
			c0,0,0,0,0-0.1c0,0-0.1-0.1-0.1-0.1l0.5,0l8.1,0l16.2,0l32.4,0l64.8,0.1l8.1,0l1.8,0l0-1.7l0-4.1l0-16.2l0-32.4l0.1-64.8
			L351.4,4.5z"/>
	</g>
	<g>
		<g>
			<path class="st0" d="M351.6,4.5l0.6,378.5l0-0.1c0,0.2,0,0.3,0,0.5l0,0l0,0c-0.1,0.2-0.2,0.4-0.4,0.6c0,0,0,0-0.1,0.1l-0.1,0
				c-0.1,0-0.1,0-0.2,0c-0.1,0-0.2,0-0.3,0l0,0l-69.9,0.1l-34.9,0.1l-17.5,0l-8.7,0l-0.5,0c-0.2,0-0.3,0-0.7,0
				c-0.1,0-0.3-0.1-0.4-0.2c-0.1-0.1-0.2-0.2-0.3-0.3c-0.2-0.2-0.2-0.6-0.2-0.8l0.1-2.2c0.1-1.5,0.1-2.9,0.3-4.4l0,0l0-0.3
				c0,0,0,0,0,0c0,0,0,0,0.1,0.1c0,0,0,0,0,0.1c0,0,0,0,0.1,0.1c0.1,0.1,0.4,0,0.5-0.1c0.1-0.1,0.1-0.1,0.1-0.1l0,0
				c0,0,0-0.1,0.1-0.1l0,0c0,0,0,0,0-0.1c0,0,0,0,0-0.1c0-0.1,0-0.1-0.1-0.1c-0.1,0,0.1,0,0.2,0l1.5-0.3l-1.1,1l-0.4,0.3l0,0l0,0
				c-2.5,2-5.4,3.5-8.4,4.6c-2.9,1.2-5.9,2.3-9,3.2c-3,0.9-6.1,1.7-9.2,2.4c-3.1,0.7-6.2,1.2-9.4,1.7c-12.6,1.8-25.3,2.3-38,1.8
				c-3.2-0.1-6.3-0.3-9.5-0.5c-3.2-0.2-6.3-0.5-9.5-0.8c-6.3-0.7-12.6-1.7-18.8-2.9c-12.5-2.5-24.6-6.7-35.8-12.6
				c-11.2-6-21.5-13.8-30.2-23c-4.4-4.6-8.4-9.5-12.2-14.6c-3.7-5.1-7.1-10.6-10.1-16.1c-3.1-5.5-5.9-11.2-8.4-17.1
				c-1.3-2.9-2.5-5.8-3.6-8.8c-1.1-3-2-6-2.8-9.1c-1.7-6.1-2.9-12.4-3.6-18.7c-0.7-6.3-1-12.7-1-19c0-12.7,1.6-25.4,4.4-37.8
				c2.8-12.4,6.9-24.5,12.5-35.9c2.8-5.7,5.9-11.2,9.4-16.5c3.5-5.3,7.5-10.3,11.8-14.9c8.6-9.3,18.8-17.1,29.9-23.4
				c5.5-3.1,11.3-5.8,17.2-8.1c5.9-2.3,11.9-4.3,18.1-5.9c12.3-3.2,24.9-5,37.6-5.3c12.7-0.3,25.4,0.6,37.9,2.8
				c6.3,1.1,12.4,2.6,18.5,4.6c6.1,1.9,11.9,4.5,17.4,7.7l0.3,0.2l-0.3,0.2l-0.3,0.2l-0.3,0.2l0-0.4l0.3-57.5l0.1-28.8l0.2-14.4
				c0-2.4,0-4.8,0-7.2c0-1.2,0-2.4,0-3.6c0-0.6,0-1.2,0.1-1.8c0-0.3,0.1-0.6,0.2-0.9c0-0.2,0.1-0.3,0.2-0.5c0.1-0.2,0.3-0.4,0.6-0.4
				l0,0l0,0c0.2,0,0.5,0.2,0.6,0.4c0.1,0.2,0.1,0.3,0.2,0.5c0.1,0.4,0.1,0.6,0.2,1c0.1,0.7,0,1.3,0.1,1.9c0,1.2,0.1,2.5,0.1,3.7
				l0,7.4l0,14.9l0,29.8l0,59.5l0,0.8l-0.6-0.6c-4.5-4.3-10.5-6.7-16.4-8.8c-6-2-12.1-3.6-18.2-4.7c-12.4-2.2-24.9-3.8-37.5-3.6
				c-12.6,0.2-25.1,1.8-37.4,4.8c-12.2,2.9-24.1,7.4-35.2,13.2C60,126.2,49.8,133.8,41,142.8c-8.6,9.1-15.8,19.6-21.3,30.9
				C14.2,185.1,10,197,7.2,209.3c-2.8,12.3-4.4,24.8-4.6,37.4c-0.1,6.3,0.2,12.6,0.8,18.8c0.6,6.3,1.8,12.4,3.4,18.5
				c0.4,1.5,0.9,3,1.3,4.5c0.5,1.5,1,3,1.6,4.4c1.1,3,2.2,5.9,3.5,8.8c2.5,5.8,5.3,11.4,8.3,16.9c3.1,5.5,6.4,10.8,10.1,15.9
				c3.7,5.1,7.8,9.9,12.1,14.4c8.7,9.1,18.9,16.7,30,22.6c2.8,1.5,5.6,2.8,8.5,4.1l4.3,1.9c1.4,0.7,2.9,1.2,4.4,1.7
				c3,1.1,6,1.9,9,2.7c3,0.8,6.1,1.5,9.2,2.1c12.4,2.4,24.9,3.5,37.5,4c12.6,0.5,25.2-0.4,37.6-2.3c6.2-1,12.4-2.4,18.3-4.3
				c3-1,5.9-2.1,8.8-3.3c1.4-0.6,2.8-1.4,4.1-2.2c1.3-0.8,2.6-1.7,3.9-2.7l0,0l0,0c0.3-0.2,0.7-0.2,1-0.1c0.3,0.1,0.6,0.4,0.7,0.7
				c0.1,0.2,0.1,0.3,0.1,0.5l0,0.3l0,0.6l-0.1,2.4l-0.1,2.4l0,1.2l0,1.2l-1-0.1c0,0,0,0.1,0,0.2l0-0.1c0,0,0,0.1,0,0.1l0.2-1
				l129.2-0.1l0.2,0.7c0.1,0,0.1-0.1,0.1-0.1l-0.8,0c0-15.8,0.1-31.6,0.2-47.4l0.2-47.4l0.4-94.8l0.4-94.8l0.2-47.4l0.1-23.7l0-11.8
				c0-3.9-0.1-7.9,0.1-11.8l0,0l0.1-0.5l0,0c0-0.1,0.1-0.1,0.1-0.1c0,0,0.1,0,0.1,0.1l0,0c0.1,0.2,0.1,0.4,0.2,0.6
				c0.1,0.2,0.1,0.4,0.1,0.6C351.5,3.7,351.6,4.1,351.6,4.5z M351.5,4.5c0-0.4-0.1-0.7-0.2-1.1c0-0.2-0.1-0.4-0.1-0.6
				c-0.1-0.2-0.1-0.4-0.2-0.5l0,0l0,0c0,0,0,0,0,0c0,0,0,0,0,0l0,0l0,0l-0.1,0.5l0,0c-0.1,3.9,0,7.9-0.1,11.8l0,11.8l-0.1,23.7
				l-0.1,47.4l-0.3,94.8L350,287l-0.1,47.4c0,15.8-0.1,31.6-0.1,47.4l-0.8,0c0-0.2,0.1-0.3,0.3-0.4l0.2,0.7l-64.6,0.2
				c-21.5,0.1-43.1,0.1-64.6,0.1l0.2-1c0.3,0.1,0.5,0.4,0.6,0.7l0-0.1c0,0.1,0,0.3,0,0.4l-1-0.1l0-1.2l0-1.2l0.1-2.4l0.1-2.4l0-0.6
				v-0.3c0,0,0-0.1,0-0.1c0-0.1-0.1-0.1-0.1-0.1c-0.1,0-0.1,0-0.2,0l0,0c-1.3,0.9-2.5,1.9-3.9,2.7c-1.4,0.8-2.8,1.6-4.2,2.2
				c-2.9,1.3-5.9,2.4-8.9,3.4c-6,2-12.2,3.3-18.5,4.4c-12.5,2-25.2,2.8-37.8,2.3c-12.6-0.5-25.2-1.6-37.7-4
				c-3.1-0.6-6.2-1.3-9.3-2.1c-3.1-0.8-6.1-1.6-9.1-2.7c-1.5-0.5-3-1.1-4.4-1.8l-4.3-1.9c-2.9-1.2-5.8-2.6-8.6-4.1
				c-11.2-5.9-21.5-13.6-30.2-22.7c-4.4-4.6-8.5-9.4-12.2-14.5c-3.7-5.1-7.1-10.5-10.2-16c-3.1-5.5-5.9-11.2-8.4-17
				c-1.2-2.9-2.4-5.8-3.5-8.8c-0.5-1.5-1.1-3-1.6-4.5c-0.5-1.5-0.9-3-1.3-4.6c-1.7-6.1-2.8-12.4-3.5-18.7c-0.7-6.3-1-12.6-0.8-18.9
				c0.2-12.6,1.8-25.3,4.6-37.6c2.8-12.3,7-24.3,12.5-35.7c5.6-11.4,12.8-21.9,21.5-31.1c8.8-9.1,19.1-16.7,30.3-22.6
				c11.2-5.9,23.1-10.4,35.4-13.3c12.3-3,24.9-4.6,37.5-4.8c12.7-0.2,25.3,1.4,37.7,3.6c6.2,1.2,12.3,2.8,18.3,4.8
				c3,1,5.9,2.2,8.8,3.6c2.9,1.4,5.6,3.2,7.9,5.4l-0.6,0.3l0-59.5l0-29.8l0-14.9l0-7.4c0-1.2,0-2.5,0-3.7c0-0.6,0-1.3-0.1-1.8
				c-0.1-0.3-0.1-0.7-0.2-0.9c0-0.1-0.1-0.3-0.1-0.4c0-0.1-0.1-0.1-0.2-0.1l0,0c-0.1,0-0.1,0-0.1,0.1c0,0.1-0.1,0.3-0.1,0.4
				C215,1.5,215,1.7,214.9,2c-0.1,0.6,0,1.2-0.1,1.8c0,1.2-0.1,2.4,0,3.6c0,2.4,0,4.8,0,7.2l-0.2,14.4l-0.2,28.8l-0.3,57.5l-0.3-0.2
				l0.3-0.2l0,0.4c-5.4-3.3-11.2-5.8-17.3-7.7c-6-2-12.2-3.5-18.4-4.6c-12.5-2.2-25.2-3.1-37.8-2.8c-12.7,0.3-25.3,2.1-37.5,5.3
				c-6.1,1.6-12.2,3.6-18.1,5.9c-5.9,2.3-11.7,5-17.2,8.1c-11,6.2-21.2,14-29.7,23.3c-4.3,4.6-8.2,9.6-11.8,14.9
				c-3.5,5.3-6.6,10.8-9.4,16.5c-5.6,11.4-9.6,23.5-12.4,35.8c-2.8,12.3-4.3,25-4.3,37.6c0,6.3,0.3,12.7,1,18.9
				c0.7,6.3,1.9,12.5,3.6,18.6c0.8,3.1,1.8,6.1,2.8,9c1.1,3,2.3,5.9,3.6,8.8c2.5,5.8,5.3,11.5,8.4,17c3.1,5.5,6.4,10.9,10.1,16
				c3.7,5.1,7.8,10,12.1,14.6c8.7,9.2,18.9,16.9,30.1,22.8c11.2,5.8,23.3,10.1,35.7,12.5c6.2,1.2,12.5,2.2,18.8,2.9
				c3.1,0.3,6.3,0.6,9.5,0.8c3.1,0.2,6.3,0.3,9.5,0.5c12.6,0.5,25.3-0.1,37.9-1.9c3.1-0.5,6.2-1,9.3-1.7c3.1-0.7,6.2-1.4,9.2-2.3
				c3-0.9,6-2,8.9-3.2c3-1.1,5.7-2.6,8.2-4.5l0,0l0.4-0.4l0.3,0.8c-0.1,0-0.2,0-0.4,0c-0.1,0-0.3-0.1-0.5-0.2
				c-0.1-0.1-0.2-0.2-0.2-0.3c0,0,0-0.1,0-0.1c0,0,0-0.1,0-0.1c0,0,0,0,0-0.1c0-0.1,0-0.1,0.1-0.2l0,0c0,0,0,0,0.1-0.1
				c0.1-0.1,0.4-0.1,0.5-0.1c0.1,0.1,0.1,0.1,0.1,0.1c0,0,0,0,0.1,0.1c0.1,0.1,0.1,0.1,0.1,0.2c0,0.1,0,0.1,0,0.1l0,0.3l0,0l0,0
				c-0.2,1.4-0.2,2.9-0.3,4.4l-0.1,2.2c0,0.3,0,0.3,0.2,0.4c0,0,0.2,0,0.4,0l0.5,0l8.7,0l17.5,0l34.9,0l69.9,0h0l0,0
				c0,0,0.1,0,0.1,0l0.1,0l0,0c0,0,0,0,0,0c0.1,0,0.1-0.1,0.2-0.2l0,0.1c0-0.1,0-0.2,0-0.3l0-0.1L351.5,4.5z"/>
			<path class="st0" d="M351.4,4.5c0-0.4,0-0.7-0.1-1.1c-0.1-0.4-0.1-0.7-0.2-1.1l0,0l0,0c0,0,0,0,0,0c0,0,0,0,0,0c0,0,0,0,0,0
				c0,0,0.1,0,0.1,0c0,0,0,0,0,0l0,0c-0.2,1.3-0.1,2.6-0.2,4l0,4l0,8l0,15.9l0,31.9l-0.1,63.7L350.7,257l-0.1,63.7l0,31.9l0,15.9
				l0,8l0,4l0,1l0,0.3c0,0.1,0,0.3-0.1,0.4c-0.1,0.1-0.1,0.2-0.2,0.3c-0.1,0-0.1,0.1-0.2,0.1c0,0-0.1,0-0.2,0.1
				c-0.3,0.1-0.4,0-0.6,0l-0.5,0l-1,0l-63.7,0.3l-31.9,0.2l-15.9,0.1l-15.9,0l0.1,0c-0.1,0-0.3,0-0.4,0l0,0l0,0
				c-0.3-0.1-0.5-0.3-0.7-0.6c0-0.1-0.1-0.1-0.1-0.2c0-0.1,0-0.1,0-0.1l0-0.1c0-0.1,0-0.3,0.1-0.4l0.8-2l0,2.2l0,0.2l-0.9,0l0.1-3.9
				l0-1.9l0-1l0-0.5l0-0.5l0.9,0c0-0.1,0-0.1-0.1-0.1c0,0-0.1,0-0.1,0l0,0l0,0l-0.1,0l0,0l0,0l0,0l0,0l0,0l0,0l0.1,0l2.3-0.6l-2,1.4
				l-1.9,1.4l-1,0.7c-0.4,0.3-0.7,0.4-1,0.6l-1,0.6c-0.4,0.2-0.7,0.4-1.1,0.5l-2.1,1l-1.1,0.5l-0.3,0.1l-0.3,0.1l-0.6,0.2l-2.2,0.9
				c-1.5,0.6-3,1.1-4.5,1.6c-6,2-12.3,3.4-18.5,4.4c-6.3,1-12.6,1.6-18.9,2c-6.3,0.4-12.7,0.5-19,0.3c-12.7-0.5-25.4-1.7-37.8-4
				c-6.2-1.2-12.4-2.7-18.4-4.8l-2.2-0.8l-0.6-0.2l-0.1-0.1l-0.2-0.1l-0.3-0.1l-1.1-0.5l-4.3-1.9c-2.9-1.3-5.8-2.6-8.6-4.1
				c-11.2-6-21.6-13.6-30.4-22.8c-8.8-9.1-16.4-19.5-22.5-30.6c-3.1-5.5-5.9-11.2-8.4-17.1c-1.3-2.9-2.4-5.9-3.5-8.8
				c-0.5-1.5-1.1-3-1.6-4.5c-0.5-1.5-0.9-3-1.3-4.6C4,278.6,2.9,272.3,2.2,266c-0.7-6.3-1-12.7-0.9-19c0.2-12.7,1.8-25.4,4.6-37.7
				c2.8-12.4,7-24.5,12.5-35.9c5.6-11.4,12.8-22,21.5-31.3c8.8-9.2,19.1-16.9,30.3-22.8c11.2-5.9,23.2-10.4,35.5-13.4
				c12.3-3,25-4.7,37.7-4.9c12.7-0.3,25.4,1.3,37.8,3.6c6.2,1.2,12.4,2.7,18.4,4.7c3,1,6,2.2,8.8,3.5c2.9,1.3,5.6,3.1,8,5.2l0.3,0.2
				l-0.3,0.1l-0.6,0.2l-0.3,0.1l0-0.3l0-58.7l0-29.4l0-14.7l0-7.3c0-1.2,0-2.4,0-3.7l-0.1-1.8l0-0.5l0-0.1c0,0,0-0.1,0-0.1l0-0.2
				l-0.1-0.5c0-0.1-0.1-0.3-0.1-0.4l0-0.1c0,0,0,0.1,0.1,0.2c0.1,0,0.1,0.1,0.2,0.1c0,0,0.1,0,0.1,0c0,0,0.1-0.1,0.1-0.2
				c0-0.2-0.1-0.2-0.1-0.2c-0.1-0.1-0.1,0-0.1,0l0,0l0,0c0,0,0,0,0,0c0,0,0,0-0.1,0c0,0-0.1,0-0.1,0.2c0,0.1,0.1,0.2,0.1,0.2
				c0,0,0.1,0,0.1,0c0.2,0,0.3-0.2,0.3-0.2l0,0c-0.3,1.1-0.3,2.3-0.3,3.5c0,0.6,0,1.2,0,1.8l0,1.8l0,7.2l-0.1,14.3l-0.2,28.7
				l-0.3,57.3l0,0.6l-0.5-0.3c-5.4-3.3-11.2-5.8-17.2-7.7c-6-2-12.1-3.5-18.3-4.6c-12.4-2.2-25.1-3.1-37.7-2.8
				c-12.6,0.3-25.2,2.1-37.4,5.2c-6.1,1.6-12.1,3.5-18,5.8c-5.9,2.3-11.6,4.9-17.1,8c-11,6.2-21.1,13.9-29.7,23.1
				c-4.3,4.6-8.2,9.6-11.7,14.8c-3.5,5.2-6.6,10.7-9.4,16.4c-5.6,11.3-9.7,23.3-12.4,35.6c-2.8,12.3-4.3,24.9-4.3,37.5
				c0,6.3,0.3,12.6,1,18.9c0.7,6.3,1.9,12.5,3.5,18.5c0.8,3,1.8,6,2.8,9c1.1,2.9,2.3,5.9,3.5,8.8c2.5,5.8,5.3,11.4,8.4,17
				c3.1,5.5,6.4,10.9,10,16c3.7,5.1,7.7,10,12,14.6c8.6,9.2,18.8,16.9,29.9,22.8c11.2,5.8,23.2,10,35.5,12.4
				c6.2,1.2,12.4,2.2,18.7,2.8c3.1,0.3,6.3,0.6,9.4,0.8c3.1,0.2,6.3,0.3,9.5,0.4c6.3,0.2,12.6,0.2,18.9-0.1
				c6.3-0.3,12.6-0.8,18.8-1.8c3.1-0.5,6.2-1,9.3-1.7c3.1-0.7,6.1-1.4,9.1-2.4c3-0.9,6-2,8.9-3.2c2.9-1.1,5.7-2.6,8-4.6l0.1-0.1
				l0.1,0c0.1,0,0.3,0,0.4,0c0.2,0,0.3,0,0.5,0.2c0.2,0.1,0.4,0.4,0.4,0.5c0,0.1,0,0.2,0,0.3c0,0,0,0.1,0,0.1l0,0.1l0,0l0,0l0,0
				c0,0,0,0,0,0.1c0,0,0,0.1-0.2,0.2c-0.1,0.1-0.5,0.1-0.6-0.1c-0.2-0.3-0.1-0.3-0.1-0.3l0-0.1l0,0l0-0.1l1,0.1c0,0.3,0,0.6,0,0.9
				c0,0.1,0,0.3,0,0.4l0,0.4l-0.1,1.7l-0.2,3.4l-1-0.1c0,0.1,0.1,0.2,0.1,0.3l0.3,0.1h-0.1c0-2,0-0.6,0-1l0,0h0.1l0.3,0l0.5,0l1,0
				l2.1,0l4.1,0l8.2,0l16.5,0l33,0.1l66,0.1l0.4,0.4c-1.5,0-0.4,0-0.8-0.1l0-0.1l0-0.2l0-0.4l0-0.7l0-1.5l0-3l0-5.9l0-11.8l0-23.7
				l0.1-47.3l0.2-94.7L351.4,4.5z M351.5,4.5l0,189.3l0,94.7l0,47.3l0,23.7l0,11.8l0,5.9l0,3l0,1.5l0,0.7l0,0.4l0,0.2l0,0.1
				c-0.3,0,0.8,0.1-0.8,0.1l0.4,0.4l-66,0l-33,0l-16.5,0l-8.2,0l-4.1,0l-2.1,0l-1,0l-0.5,0l-0.3,0h-0.1l0,0c0-0.4,0,1,0-1h0.1h0.2
				l0.1,0.1c0.2,0.1,0.3,0.4,0.3,0.6l-1-0.1l0.2-3.4l0.1-1.7l0-0.4c0-0.2,0-0.3,0-0.5c0-0.3,0-0.5,0-0.8l1,0.1c0,0,0,0,0-0.1l0,0
				l0-0.1c0,0,0.1-0.1-0.1-0.3c-0.1-0.2-0.5-0.2-0.6-0.1c-0.1,0.1-0.1,0.1-0.2,0.2l-0.1,0.1l0,0c0,0,0,0,0,0c0,0,0,0,0,0
				c0,0,0,0,0,0c0,0,0,0,0,0.1c0.1,0-0.1,0-0.2,0l0.2-0.1c-2.5,2.1-5.4,3.6-8.3,4.8c-2.9,1.2-5.9,2.3-8.9,3.3c-3,1-6.1,1.7-9.2,2.4
				c-3.1,0.7-6.2,1.2-9.4,1.7c-6.3,1-12.6,1.5-18.9,1.8c-6.3,0.3-12.7,0.3-19,0.1c-3.2-0.1-6.3-0.3-9.5-0.5
				c-3.2-0.2-6.3-0.5-9.5-0.8c-6.3-0.7-12.6-1.6-18.8-2.8c-12.5-2.4-24.6-6.7-35.8-12.5c-11.2-6-21.5-13.7-30.2-23
				c-4.4-4.6-8.4-9.5-12.1-14.7c-3.7-5.2-7-10.6-10.1-16.1c-3.1-5.5-5.9-11.2-8.4-17c-1.3-2.9-2.5-5.8-3.5-8.8c-1.1-3-2-6-2.8-9.1
				c-1.7-6.1-2.8-12.4-3.6-18.7c-0.7-6.3-1-12.6-1-19c0-12.7,1.6-25.3,4.4-37.7c2.8-12.4,6.9-24.4,12.5-35.8
				c2.8-5.7,5.9-11.2,9.5-16.5c3.5-5.3,7.5-10.2,11.8-14.9c8.7-9.3,18.9-17.1,29.9-23.3c5.5-3.1,11.3-5.7,17.2-8
				c5.9-2.3,12-4.2,18.1-5.8c12.3-3.1,24.9-4.9,37.6-5.1c12.7-0.3,25.4,0.7,37.8,2.9c6.2,1.1,12.4,2.7,18.4,4.6
				c6,1.9,11.9,4.5,17.3,7.8l-0.5,0.3l0.4-57.3l0.2-28.7l0.1-14.3l0-7.2l0-1.8c0-0.6,0-1.2,0-1.8c0-1.2,0-2.4,0.3-3.6l0,0
				c0-0.1,0.1-0.3,0.3-0.3c0,0,0.1,0,0.1,0c0.1,0,0.2,0.1,0.1,0.3c-0.1,0.2-0.1,0.2-0.1,0.2c-0.1,0-0.1,0-0.1,0c-0.1,0-0.1,0-0.1,0
				c0,0-0.1,0-0.1,0l0,0c0,0,0,0-0.1-0.1c0,0-0.1-0.1-0.1-0.2c0-0.1,0.1-0.2,0.1-0.2c0.1,0,0.1,0,0.1,0c0.1,0,0.2,0,0.2,0.1
				c0.1,0.1,0.1,0.2,0.1,0.2l0-0.1c0,0.2,0.1,0.2,0.1,0.5l0.1,0.5l0,0.2l0,0.1l0,0.1l0,0.5l0,1.8c0,1.2,0,2.5,0,3.7l0,7.3l0,14.7
				l0,29.4l0,58.7l-0.3-0.2l0.6-0.2l-0.1,0.4c-2.4-2.1-5-3.8-7.9-5.1c-2.9-1.3-5.8-2.5-8.8-3.5c-6-2-12.2-3.6-18.4-4.7
				c-12.5-2.2-25.1-3.9-37.8-3.6c-12.7,0.2-25.3,1.9-37.6,4.9c-12.3,2.9-24.3,7.4-35.5,13.4c-11.2,5.9-21.5,13.6-30.2,22.7
				c-8.7,9.2-15.9,19.8-21.4,31.2c-5.5,11.4-9.7,23.4-12.4,35.8c-2.8,12.4-4.3,25-4.5,37.6c-0.1,6.3,0.2,12.7,0.9,19
				c0.7,6.3,1.8,12.5,3.4,18.6c0.4,1.5,0.8,3,1.3,4.5c0.5,1.5,1,3,1.6,4.5c1.1,3,2.3,5.9,3.5,8.8c2.5,5.8,5.3,11.5,8.4,17
				c6.1,11.1,13.6,21.4,22.4,30.5c8.8,9.1,19.1,16.7,30.2,22.6c2.8,1.5,5.6,2.8,8.5,4.1l4.3,1.9l1.1,0.5l0.3,0.1l0.1,0.1l0.1,0.1
				l0.6,0.2l2.2,0.8c5.9,2.1,12.1,3.6,18.3,4.8c12.4,2.4,25.1,3.5,37.7,4c6.3,0.2,12.7,0.1,19-0.3c6.3-0.4,12.6-1,18.9-2
				c6.2-1,12.4-2.4,18.4-4.4c1.5-0.5,3-1,4.5-1.6l2.2-0.9l0.6-0.2l0.3-0.1l0.3-0.1l1.1-0.5l2.1-1c0.3-0.2,0.8-0.3,1-0.5l1-0.6
				c0.3-0.2,0.7-0.4,1-0.6l1-0.7l1.9-1.4l0.3,0.8l-0.1,0l0,0l0,0l0,0l0,0l-0.1,0l0,0c-0.1,0-0.2,0-0.4-0.1c-0.2-0.1-0.4-0.4-0.4-0.6
				l0.9,0l0,0.5l0,0.5l0,1l0,1.9l-0.1,3.9l-0.9,0l0-0.2l0.8,0.2c0,0,0,0.1,0,0.1l0,0c0,0,0,0,0,0c0,0,0,0,0,0c0,0,0.1,0.1,0.1,0.1
				l-0.1,0c0,0,0.1,0,0.1,0l0.1,0l127.4-0.4l1,0l0.5,0c0.2,0,0.4,0,0.4,0c0,0,0,0,0.1,0c0,0,0,0,0,0c0,0,0.1,0,0.1-0.1
				c0,0,0-0.1,0-0.1l0-0.2l0-1l0-4l0-8l0-15.9l0.1-31.9l0.2-63.7l0.3-127.4l0.2-63.7l0.1-31.9l0-15.9l0-8l0-4c0-1.3-0.1-2.6,0.2-4
				l0,0c0,0,0,0,0,0c0,0,0.1,0,0.1,0c0,0,0,0,0,0c0,0,0,0,0,0c0,0,0,0.1,0,0.1l0,0c0.1,0.4,0.2,0.7,0.2,1.1
				C351.5,3.7,351.5,4.1,351.5,4.5z"/>
		</g>
	</g>
</g>
<g>
	<g>
		<path class="st0" d="M312.1,10.5c0,0,0.1,46.8,0.3,116.9c0.1,17.5,0.1,36.5,0,56.6c0,20.1-0.1,41.3-0.1,63.2
			c0,21.9-0.1,44.6-0.1,67.6c0,11.5,0,23.1,0.1,34.8c0,5.8,0,11.7,0,17.5l0,8.8c0,1.5,0,2.9-0.1,4.4c0,0.1,0,0.2-0.1,0.3
			c0.2,0.1-0.6,0.5-0.6,0.1c-0.1-0.3-0.2-0.4-0.2-0.6c-0.1-0.4-0.1-0.7-0.2-1.1c-0.1-0.7-0.1-1.5-0.1-2.2
			c-0.1-23.4-0.1-46.8-0.2-69.8c0-23,0-45.7,0-67.6c0-21.9,0-43.1,0-63.2c0-20.1,0-39.1,0.1-56.6c0.1-35.1,0.2-64.3,0.3-84.8
			c0-10.2,0-18.3,0.1-23.7c0-1.4,0-2.6,0.1-3.6c0-0.3,0-0.5,0.2-0.8c0,0,0.1-0.1,0.1-0.1c0.1,0,0.1,0,0.1,0.1c0,0.1,0.1,0.1,0.1,0.2
			c0,0.1,0.1,0.2,0.1,0.3c0.1,0.4,0.1,0.8,0.2,1.2C312.1,9.8,312.1,10.5,312.1,10.5z M312,10.5c0,0,0-0.7-0.1-2.1
			c0-0.4-0.1-0.7-0.2-1.2c0-0.1-0.1-0.2-0.1-0.3c0-0.1-0.1-0.2-0.1-0.1c-0.1,0.2-0.1,0.5-0.2,0.7c-0.1,1-0.1,2.2-0.1,3.6
			c0,5.5,0,13.5,0.1,23.7c0.1,20.5,0.1,49.7,0.3,84.8c0.1,17.5,0.1,36.5,0.1,56.6c0,20.1,0,41.3,0,63.2c0,21.9,0,44.6,0,67.6
			c-0.1,23-0.1,46.4-0.2,69.8c0,0.7,0,1.4,0.1,2.2c0,0.4,0.1,0.7,0.2,1.1c0,0.2,0.1,0.4,0.1,0.4c0-0.1-0.5,0.1-0.3,0
			c0-0.1,0-0.1,0.1-0.2c0.2-1.4,0.1-2.9,0.2-4.3l0-8.8c0-5.8,0-11.7,0-17.5c0-11.6,0-23.2,0.1-34.8c0-23-0.1-45.7-0.1-67.6
			c0-21.9-0.1-43.1-0.1-63.2c-0.1-20.1,0-39.1,0-56.6C311.9,57.3,312,10.5,312,10.5z"/>
	</g>
	<g>
		<g>
			<path class="st0" d="M312.1,10.5l0.5,92.5l0.2,46.3c0,7.7,0,15.4,0,23.1l-0.1,23.1l-0.4,92.5l-0.1,23.1l0.1,23.1l0.1,23.1l0,11.6
				l0,5.8c0,1.9,0.1,3.8-0.2,5.8l-0.1-0.3c0.1,0.1,0.1,0.1,0.1,0.2c0,0.1,0,0.2-0.1,0.3c-0.1,0.1-0.1,0.1-0.2,0.1
				c-0.1,0.1-0.2,0.1-0.3,0.1c-0.1,0-0.2,0-0.3,0c-0.1,0-0.1,0-0.2-0.1c-0.1-0.1-0.1-0.2-0.1-0.3l0,0.1c-0.1-0.3-0.2-0.5-0.2-0.8
				l-0.1-0.7c-0.1-0.5-0.1-1-0.1-1.5c-0.1-1-0.1-2-0.1-2.9l0-5.8l0-11.7l-0.1-23.4l-0.1-46.8l0-93.5l0.1-46.8l0.3-46.8l0.3-46.8
				l0.1-23.4l0.1-11.7l0-5.8c0-1,0-2,0.1-2.9l0-1.5c0-0.5,0-1,0.2-1.5l0,0l0,0c0-0.1,0.1-0.1,0.2-0.1l0,0l0,0c0.1,0,0.2,0.2,0.2,0.2
				c0,0.1,0.1,0.2,0.1,0.3c0.1,0.2,0.1,0.3,0.1,0.5l0.1,0.5c0,0.2,0.1,0.3,0.1,0.5L312.1,10.5z M312,10.5l-0.1-2
				c0-0.2,0-0.3-0.1-0.5l-0.1-0.5c0-0.2,0-0.3-0.1-0.5c0-0.1,0-0.2-0.1-0.2c0-0.1-0.1-0.1-0.1-0.2l0,0c0,0-0.1,0-0.1,0l0,0
				c-0.2,0.4-0.2,0.9-0.2,1.4l0,1.5c0,1,0,1.9,0,2.9l0,5.8l0,11.7l0,23.4l0,46.8l0.1,46.8l0,46.8l0,93.5l0,46.8l0,23.4l0,11.7l0,5.8
				c0,1,0,1.9,0,2.9c0,0.5,0,1,0.1,1.4l0.1,0.7c0,0.2,0.1,0.4,0.2,0.6l0,0.1c0,0,0-0.1,0-0.1c0,0,0,0,0,0c0,0,0.1,0,0.1,0
				c0.1,0,0.1,0,0.1,0c0,0,0,0,0,0c0,0,0,0.1,0,0.2c0,0.1,0,0.1,0.1,0.1l-0.1-0.3c0.2-0.9,0.2-1.9,0.2-2.8c0-0.9,0-1.9,0-2.9l0-5.8
				l0-11.6l0-23.1l0-46.3l0-92.5L312,10.5z"/>
			<path class="st0" d="M312,10.5l-0.1-1.8c0-0.3-0.1-0.6-0.1-0.9c0-0.3-0.1-0.6-0.2-0.9l0,0l0,0c0,0,0-0.1,0-0.1c0,0,0,0,0,0
				c0,0,0,0,0,0c0,0,0,0,0.1,0c0,0,0,0,0,0l0,0c-0.2,0.4-0.2,0.9-0.2,1.4c0,0.5,0,1,0,1.5l0,2.9l0,5.8l0.1,11.7l0.1,23.4l0.3,46.7
				l0.2,46.7l0,23.4l0,23.4l-0.2,93.4l0,46.7l0,23.4l0,11.7l0,5.8l0,2.9l0,1.4l0.1,0.7l0,0.2c0,0,0,0.1,0,0.1l0,0.1l0.1,0.3l0.1,0.3
				l-0.4,0c-0.1,0-0.1,0-0.2,0l-0.4,0l0.1-0.3c0-0.2,0.1-0.4,0.1-0.7l0.1-0.7c0-0.5,0-1,0.1-1.4c0-0.9,0-1.9,0-2.9l0-5.8l0-11.6
				l0-23.1l-0.1-46.2l-0.2-92.5l0-23.1l0-23.1l0.1-23.1l0.2-23.1L312,10.5z M312,10.5L312,103l0.1,92.5l0.1,92.5l0,23.1l-0.1,23.1
				l-0.1,23.1l0,11.6l0,5.8c0,1,0,1.9,0,2.9c0,0.5,0,1-0.1,1.5l-0.1,0.7c0,0.2,0,0.5-0.1,0.8l-0.3-0.4c0.1,0,0.3,0,0.4,0l-0.3,0.4
				l-0.1-0.4l0-0.1l0-0.1l0-0.2l-0.1-0.7c0-0.6,0-1,0-1.5l0-2.9l0-5.8l0-11.7l0.1-23.4l0.1-23.4l0-23.4l-0.2-93.4l-0.1-46.7l0-46.7
				l0-46.7l0-23.4l0-11.7v-5.8l0-2.9c0-0.5,0-1,0-1.5c0-0.5,0-1,0.2-1.5l0,0c0,0,0,0,0-0.1c0,0,0.1,0,0.1,0c0,0,0,0,0,0
				c0,0,0,0,0,0.1c0,0,0,0.1,0,0.1l0,0c0.1,0.3,0.1,0.6,0.2,0.9c0,0.3,0.1,0.6,0.1,0.9L312,10.5z"/>
		</g>
	</g>
</g>
<g>
	<path class="st1" d="M219.8,0.2c3.7,0,63,0.5,100.8,0.5c12.6,0,23.5-0.1,25.9,0c7.2,0.4,5.1,1.1-3.7,1.1
		c-7.2,0-114.5-0.6-121.3-0.6S216.1,0.2,219.8,0.2z"/>
	<path class="st1" d="M219.8,0.1h11.5c3.7,0,8.1,0,13.2,0L261.8,0c6.3,0,13.1,0,20.3,0.1s14.8,0.2,22.7,0.3s16,0.2,24.3,0.2
		l12.5-0.1h3.1c1,0,2.1,0,3.2,0.1c0.5,0,1,0.1,1.6,0.1l0.8,0.1l0.4,0.1l0.2,0.1l0.1,0.1c0.1,0.1,0.2,0.3,0.1,0.4
		c-0.1,0.1-0.2,0.2-0.3,0.2l-0.2,0.1l-0.4,0.1l-0.8,0.1c-0.5,0-1.1,0.1-1.6,0.1c-2.1,0.1-4.2,0.1-6.3,0.1h-6.3h-12.5h-24.3
		l-22.7-0.2c-7.2,0-14-0.1-20.3-0.2l-17.2-0.3L225,1.2c-1.8,0-3.5,0-4.9-0.1c-0.7,0-1.4-0.1-2-0.1c-0.3,0-0.6-0.1-0.9-0.1
		c-0.1,0-0.3-0.1-0.4-0.1c-0.1,0-0.1-0.1-0.2-0.2c0-0.1,0-0.2,0.1-0.2c0.4-0.2,0.8-0.3,1.3-0.3c0.4,0,0.7-0.1,1-0.1L219.8,0.1
		L219.8,0.1z M219.8,0.2H219c-0.7,0-1.5,0.1-2.2,0.4c-0.1,0.1-0.1,0.1,0,0.1c0.1,0,0.2,0.1,0.4,0.1c0.3,0.1,0.6,0.1,0.8,0.1
		c0.6,0.1,1.3,0.1,2,0.1c1.4,0,3.1,0,4.9,0L238.2,1l17.2-0.1c6.3,0,13.1,0,20.3,0L298.4,1l24.2,0.2l12.5,0.1l6.3,0.1
		c2.1,0,4.2,0.1,6.3,0c0.5,0,1,0,1.6-0.1l0.8-0.1l0.4-0.1h0.2c0,0,0.1-0.1,0,0c0,0.1,0,0.2,0,0.2l0,0h-0.2L350,1.3l-0.8-0.1
		c-0.5-0.1-1-0.1-1.5-0.1c-1-0.1-2.1-0.1-3.1-0.1h-3.1L329,0.9h-24.2c-7.9,0-15.5,0.1-22.7,0s-14-0.1-20.3-0.1l-17.2-0.2
		c-5.1-0.1-9.6-0.2-13.2-0.2L219.8,0.2z"/>
</g>
<g>
	<g>
		<path class="st0" d="M215.6,245c0,6.5-0.6,13.1-1.9,19.5c-0.3,1.6-0.7,3.2-1.1,4.8c-0.4,1.6-0.9,3.1-1.4,4.7
			c-1.1,3.1-2.4,6.1-3.9,9c-0.8,1.4-1.6,2.9-2.5,4.2c-0.9,1.4-1.9,2.7-2.9,4c-0.5,0.7-1,1.3-1.6,1.9c-0.5,0.6-1.1,1.2-1.7,1.8
			c-0.6,0.6-1.1,1.2-1.8,1.7c-0.6,0.6-1.2,1.1-1.8,1.6c-1.3,1.1-2.6,2.1-3.9,3l-2.1,1.3l-2.1,1.2c-0.7,0.4-1.5,0.8-2.2,1.1
			c-0.7,0.4-1.5,0.7-2.2,1c-1.5,0.7-3,1.2-4.6,1.8l-0.1,0.1l-0.1-0.1l-2.3-0.9c-0.7-0.3-1.5-0.6-2.2-1l-2.2-1.1l-1.1-0.6l-1-0.7
			l-2.1-1.3c-0.7-0.4-1.3-1-2-1.4l-2-1.5l-1.8-1.6c-0.6-0.6-1.2-1.1-1.8-1.7l-1.7-1.8c-1.2-1.1-2.1-2.5-3.2-3.7
			c-2-2.6-3.8-5.3-5.4-8.2c-1.6-2.9-2.9-5.8-4-8.9l-0.5-1.1l-0.4-1.2l-0.7-2.3c-0.5-1.5-0.9-3.1-1.3-4.7c-0.2-0.8-0.4-1.6-0.6-2.4
			l-0.4-2.4c-0.3-1.6-0.6-3.2-0.7-4.8c-0.1-1.6-0.4-3.2-0.4-4.9l-0.2-4.9c0.1-3.3,0.1-6.5,0.4-9.8l0.2-2.4l0.4-2.4
			c0.3-1.6,0.5-3.2,0.9-4.8c0.7-3.2,1.6-6.3,2.7-9.4l0.9-2.3c0.3-0.8,0.6-1.5,1-2.3l1.1-2.2c0.4-0.7,0.7-1.5,1.1-2.2
			c1.6-2.8,3.4-5.6,5.5-8.1c1-1.3,2.1-2.5,3.3-3.7l1.7-1.8c0.6-0.6,1.2-1.1,1.8-1.6c0.6-0.5,1.2-1.1,1.9-1.6l2-1.5
			c1.3-1,2.7-1.8,4.1-2.7c0.4-0.2,0.7-0.4,1.1-0.6l1.1-0.6l2.2-1.1c1.5-0.7,3-1.3,4.5-1.9l0.2-0.1l0.2,0.1c1.5,0.6,3.1,1.1,4.6,1.8
			c0.8,0.3,1.5,0.7,2.2,1c0.7,0.4,1.5,0.7,2.2,1.1l2.1,1.2l2.1,1.4c1.4,0.9,2.7,1.9,3.9,3c0.6,0.5,1.2,1.1,1.8,1.6
			c0.6,0.6,1.2,1.1,1.8,1.7c0.6,0.6,1.1,1.2,1.7,1.8c0.5,0.6,1.1,1.2,1.6,1.9c1,1.3,2,2.6,2.9,4c0.9,1.4,1.7,2.8,2.5,4.3
			c1.5,2.9,2.8,6,3.9,9.1c0.5,1.6,1,3.1,1.4,4.7c0.4,1.6,0.8,3.2,1.1,4.8C215,231.9,215.6,238.5,215.6,245z M215.5,245
			c0-3.3-0.2-6.5-0.5-9.8c-0.3-3.3-0.8-6.5-1.5-9.7c-0.3-1.6-0.7-3.2-1.2-4.7c-0.4-1.6-0.9-3.1-1.5-4.7c-1.1-3.1-2.4-6.1-4-8.9
			c-0.8-1.4-1.6-2.8-2.5-4.2c-0.9-1.3-1.9-2.7-2.9-3.9c-0.5-0.6-1-1.2-1.6-1.8c-0.5-0.6-1.1-1.2-1.7-1.8c-0.6-0.6-1.1-1.2-1.8-1.7
			c-0.6-0.5-1.2-1.1-1.8-1.6c-1.2-1-2.6-2-3.9-2.9l-2-1.3l-2.1-1.2c-0.7-0.4-1.4-0.7-2.2-1.1c-0.7-0.4-1.5-0.7-2.2-1
			c-1.5-0.7-3-1.2-4.5-1.8l0.3,0c-1.5,0.6-3,1.2-4.4,1.9l-2.2,1.1l-1.1,0.5c-0.4,0.2-0.7,0.4-1,0.6c-1.4,0.9-2.8,1.6-4,2.6l-2,1.4
			c-0.6,0.5-1.2,1-1.8,1.6c-0.6,0.5-1.2,1-1.8,1.6l-1.7,1.7c-1.2,1.1-2.2,2.4-3.2,3.6c-2,2.5-3.8,5.2-5.4,8
			c-0.4,0.7-0.8,1.4-1.1,2.1l-1.1,2.2c-0.4,0.7-0.7,1.5-1,2.2l-0.9,2.2c-1.1,3-2.1,6.1-2.8,9.3c-0.4,1.6-0.7,3.2-0.9,4.8l-0.4,2.4
			l-0.2,2.4c-0.4,3.2-0.5,6.5-0.5,9.7l0.1,4.9c0,1.6,0.3,3.2,0.4,4.8c0.1,1.6,0.4,3.2,0.6,4.8l0.4,2.4c0.2,0.8,0.4,1.6,0.5,2.4
			c0.4,1.6,0.7,3.2,1.2,4.7l0.7,2.3l0.4,1.2l0.4,1.1c1.1,3,2.5,6,4.1,8.8c1.6,2.8,3.4,5.5,5.4,8.1c1,1.2,2,2.5,3.2,3.7l1.7,1.7
			c0.6,0.6,1.2,1.1,1.8,1.6l1.8,1.6l2,1.4c0.7,0.5,1.3,1,2,1.4l2.1,1.3l1,0.6l1.1,0.5l2.2,1.1c1.4,0.7,3,1.2,4.5,1.9l-0.3,0
			c1.5-0.6,3-1.1,4.5-1.8c0.7-0.3,1.5-0.7,2.2-1c0.7-0.4,1.5-0.7,2.2-1.1l2.1-1.2l2-1.3c1.3-0.9,2.6-1.9,3.9-2.9
			c0.6-0.5,1.2-1.1,1.8-1.6c0.6-0.5,1.2-1.1,1.7-1.7c0.6-0.6,1.1-1.2,1.7-1.8c0.5-0.6,1.1-1.2,1.6-1.8c1-1.2,2-2.6,2.9-3.9
			c0.9-1.3,1.8-2.7,2.6-4.1c1.6-2.8,2.9-5.8,4-8.9c0.6-1.5,1.1-3.1,1.5-4.6c0.5-1.6,0.9-3.1,1.2-4.7c0.4-1.6,0.7-3.2,0.9-4.8
			c0.3-1.6,0.5-3.2,0.6-4.9C215.3,251.5,215.5,248.3,215.5,245z"/>
	</g>
	<g>
		<g>
			<path class="st0" d="M215.6,245c0,3.1-0.1,6.2-0.4,9.2c-0.3,3.1-0.7,6.1-1.2,9.2c-0.3,1.5-0.7,3-1,4.5c-0.3,1.5-0.8,3-1.2,4.5
				c-0.4,1.5-0.9,3-1.5,4.4c-0.6,1.4-1.2,2.9-1.8,4.3c-0.3,0.7-0.7,1.4-1,2.1l-1.2,2l-1.2,2c-0.4,0.7-0.9,1.3-1.3,1.9l-1.3,1.9
				l-0.3,0.5c-0.2,0.2-0.3,0.3-0.4,0.5l-0.7,0.9l-0.4,0.4l-0.2,0.2l-0.2,0.2l-0.8,0.8c-0.5,0.6-1.1,1.1-1.6,1.7l-0.8,0.8l-0.9,0.8
				l-0.9,0.8c-0.3,0.3-0.6,0.5-0.9,0.7c-1.2,0.9-2.4,1.9-3.7,2.8c-0.7,0.4-1.3,0.8-2,1.2c-0.7,0.4-1.3,0.8-2,1.2
				c-0.7,0.4-1.3,0.7-2.1,1.1l-2.1,0.9l0,0c-1.6,0.6-3.2,1.3-4.8,1.9l-0.1,0l-0.1,0l-0.1,0l-0.1,0l-0.1,0l-2-0.8
				c-0.7-0.3-1.3-0.6-2-0.9l-0.5-0.2c-0.2-0.1-0.3-0.2-0.5-0.3l-0.9-0.5l-1.9-1l0,0l0,0c-0.6-0.4-1.2-0.8-1.8-1.2l-0.9-0.6
				c-0.3-0.2-0.6-0.4-0.9-0.6l-0.9-0.7l-0.9-0.6l-1.7-1.3l0,0l0,0l-3-2.8c-0.5-0.5-1-1-1.4-1.5c-0.5-0.5-0.9-1-1.4-1.6l-2.6-3.2
				c-0.8-1.1-1.6-2.2-2.4-3.4c-1.5-2.3-2.9-4.7-4.1-7.2c-0.6-1.2-1.2-2.5-1.7-3.8l-1.5-3.8l0,0l0,0c-0.7-2.1-1.6-4.2-2-6.4
				c-0.5-2.2-1.1-4.3-1.4-6.5c-0.2-1.1-0.4-2.2-0.5-3.3c-0.2-1.1-0.2-2.2-0.3-3.3c-0.3-2.2-0.3-4.5-0.4-6.7c-0.1-1.1,0-2.3,0-3.4
				l0.1-3.3c0-2.2,0.3-4.5,0.5-6.7c0.1-1.1,0.3-2.2,0.5-3.3c0.2-1.1,0.3-2.2,0.6-3.3c0.5-2.2,1-4.4,1.6-6.5c0.6-2.2,1.4-4.3,2.2-6.4
				c0.9-2,1.8-4.1,2.9-6c1.1-2,2.2-3.9,3.5-5.7c1.3-1.8,2.7-3.6,4.2-5.3c0.8-0.8,1.5-1.6,2.3-2.4l0.6-0.6c0.2-0.3,0.4-0.4,0.6-0.6
				l1.3-1.1c0.9-0.7,1.6-1.5,2.6-2.2l1.3-1l1.4-0.9l2.8-1.8l0.7-0.4l0.4-0.2l0.4-0.2l1.5-0.7l1.5-0.8l1.5-0.6l3.1-1.3l0.2-0.1
				l0.2,0.1l4.6,1.8l2.3,1c0.8,0.4,1.5,0.8,2.2,1.1l2.2,1.2c0.7,0.5,1.4,0.9,2.1,1.4c1.4,1,2.6,2,4,3c0.7,0.6,1.2,1.1,1.9,1.7
				c0.6,0.6,1.2,1.2,1.8,1.8c0.6,0.6,1.1,1.2,1.7,1.8c0.6,0.7,1.1,1.3,1.6,1.9c1,1.4,1.9,2.7,2.9,4c0.9,1.5,1.6,2.9,2.5,4.3
				c0.8,1.5,1.5,3,2.1,4.5c0.6,1.5,1.2,3.1,1.7,4.6l1.4,4.8l1.1,4.8C215.1,231.8,215.7,238.4,215.6,245z M215.5,245
				c0-6.6-0.6-13.2-1.9-19.6l-1.2-4.8l-1.5-4.7c-0.5-1.5-1.1-3.1-1.8-4.6c-0.7-1.5-1.4-3-2.2-4.4c-0.8-1.4-1.7-2.9-2.5-4.2l-2.9-4
				c-0.5-0.6-1.1-1.3-1.6-1.9c-0.6-0.6-1.1-1.2-1.7-1.8c-0.6-0.6-1.2-1.2-1.7-1.7c-0.6-0.5-1.2-1.1-1.8-1.6l-3.9-2.9
				c-0.7-0.4-1.4-0.9-2.1-1.3l-2.1-1.2c-0.7-0.4-1.5-0.8-2.2-1.1l-2.3-1l-4.6-1.8l0.4,0l-3.1,1.3l-1.5,0.6l-1.5,0.7l-1.5,0.8
				l-0.4,0.2l-0.3,0.2l-0.7,0.4l-2.8,1.8l-1.4,0.9l-1.4,1c-0.9,0.6-1.7,1.4-2.5,2.1l-1.3,1.1c-0.2,0.2-0.5,0.4-0.6,0.5l-0.6,0.6
				c-0.8,0.8-1.6,1.6-2.3,2.4c-1.5,1.6-2.8,3.4-4.1,5.2c-1.3,1.8-2.5,3.7-3.5,5.6c-1.1,2-2,3.9-2.9,6c-0.8,2-1.6,4.1-2.2,6.2
				c-0.7,2.1-1.2,4.3-1.7,6.4c-0.2,1.1-0.4,2.2-0.6,3.3c-0.2,1.1-0.4,2.2-0.5,3.3c-0.2,2.2-0.5,4.4-0.6,6.6l-0.1,3.3l0,1.7
				c0,0.5,0,1.1,0,1.7c0.1,2.2,0.1,4.4,0.4,6.6c0.1,1.1,0.2,2.2,0.3,3.3c0.1,1.1,0.3,2.2,0.5,3.3c0.3,2.2,0.9,4.3,1.4,6.5
				c0.5,2.2,1.3,4.2,2,6.4l0,0c0.5,1.3,1,2.6,1.5,3.8c0.5,1.3,1.1,2.5,1.7,3.7c1.2,2.5,2.6,4.8,4.1,7.1c0.8,1.1,1.6,2.2,2.4,3.3
				l2.7,3.1c0.4,0.5,0.9,1,1.4,1.5c0.5,0.5,0.9,1,1.4,1.5l3.1,2.7l0,0l1.7,1.3l0.9,0.6l0.9,0.6c0.3,0.2,0.6,0.4,0.9,0.6l0.9,0.6
				c0.6,0.4,1.2,0.8,1.8,1.2l0,0l1.9,1l1,0.5c0.2,0.1,0.3,0.2,0.5,0.2l0.5,0.2c0.7,0.3,1.3,0.6,2,0.8l2,0.8l-0.1,0l0.1,0l-0.2,0
				c1.6-0.6,3.1-1.2,4.7-1.9l0,0l2.1-0.9l2-1c0.7-0.4,1.3-0.8,2-1.2c0.6-0.4,1.3-0.8,1.9-1.2l0.5-0.3c0.1-0.1,0.3-0.2,0.4-0.3
				l0.9-0.7l1.8-1.4c0.3-0.2,0.6-0.5,0.9-0.7l0.9-0.8l0.8-0.7l0.8-0.8c0.6-0.5,1.1-1.1,1.6-1.6l0.8-0.8l0.2-0.2l0.2-0.2l0.4-0.4
				l0.7-0.9c0.1-0.1,0.3-0.3,0.3-0.4l0.3-0.5l1.4-1.9c0.4-0.6,1-1.2,1.3-1.8l1.2-2l1.2-2c0.4-0.7,0.7-1.4,1.1-2
				c0.7-1.4,1.3-2.8,1.9-4.2c0.6-1.4,1.1-2.9,1.5-4.3c0.5-1.5,1-2.9,1.3-4.4c0.3-1.5,0.8-3,1.1-4.5C215,257.3,215.6,251.1,215.5,245
				z"/>
			<path class="st0" d="M215.4,245c0-3.3-0.2-6.5-0.5-9.7c-0.3-3.2-0.8-6.4-1.5-9.6l-1.2-4.7l-1.5-4.6c-1.1-3-2.5-6-4-8.8l-2.6-4.1
				l-2.9-3.9l-1.6-1.8l-1.7-1.8l-1.7-1.7l-1.8-1.6l-3.9-2.9l-2-1.3l-2.1-1.2l-2.2-1.1l-2.2-1l-4.5-1.8l-2-0.8l2.2,0l0.3,0l2.1,0
				l-1.9,0.8l-3,1.3c-0.5,0.2-1,0.4-1.5,0.6l-1.5,0.7l-1.5,0.7c-0.4,0.2-0.9,0.6-1.4,0.8l-2.8,1.8c-0.9,0.6-1.8,1.2-2.7,1.8
				c-0.8,0.6-1.7,1.4-2.5,2c-0.8,0.7-1.7,1.4-2.4,2.2c-0.8,0.8-1.6,1.5-2.3,2.3c-1.5,1.6-2.8,3.3-4.1,5.1c-1.3,1.8-2.4,3.6-3.5,5.6
				c-1.1,1.9-2,3.9-2.9,5.9c-0.8,2-1.6,4.1-2.2,6.2c-0.6,2.1-1.1,4.2-1.6,6.4c-0.2,1.1-0.4,2.1-0.6,3.2c-0.2,1.1-0.4,2.2-0.5,3.2
				l-0.3,3.3c-0.1,1.1-0.2,2.2-0.2,3.3l-0.1,3.3l0,1.6l0.1,1.6l0.1,3.3c0,1.1,0.1,2.2,0.3,3.2l0.2,1.6l0.2,1.6l0.5,3.2
				c0.3,2.2,0.8,4.3,1.3,6.4c0.3,1.1,0.5,2.1,0.9,3.1l1,3.1l0,0c0.5,1.3,1,2.5,1.5,3.8c0.5,1.2,1.1,2.5,1.7,3.7
				c1.2,2.4,2.6,4.8,4.1,7c0.8,1.1,1.6,2.2,2.4,3.3c0.4,0.5,0.9,1,1.3,1.5l1.4,1.5l0.7,0.7l0.7,0.7c0.5,0.5,0.9,1,1.5,1.4l1.5,1.3
				l1.5,1.3l0,0l1.7,1.2c0.6,0.4,1.2,0.9,1.7,1.2c0.1,0.1,0.3,0.2,0.4,0.3c0.2,0.1,0.3,0.2,0.5,0.3l0.9,0.6l1.8,1.1l0,0l1.9,1
				l0.9,0.5l0.5,0.2l0.5,0.2c1.3,0.6,2.6,1,3.9,1.6l2.3,1l-2.5,0l-0.3,0l-2.7,0l2.5-1l4.5-1.8l2.2-1l2.1-1.1l2.1-1.2l2-1.3l3.9-2.9
				l1.8-1.6l1.7-1.7l1.7-1.7l1.6-1.8l2.9-3.9l2.6-4.1c1.6-2.8,2.9-5.8,4-8.8l1.5-4.6l1.2-4.7l0.9-4.8l0.7-4.8
				C215.2,251.5,215.4,248.2,215.4,245z M215.6,245c0,3.2-0.2,6.5-0.5,9.7l-0.6,4.8l-0.9,4.8l-1.2,4.7l-1.5,4.7
				c-1.1,3.1-2.4,6.1-3.9,9l-2.5,4.2c-1,1.4-1.9,2.6-2.9,4c-0.5,0.7-1.1,1.3-1.6,1.9l-1.7,1.8l-1.8,1.7l-1.8,1.6l-3.9,3l-2.1,1.4
				l-2.1,1.2l-2.2,1.1l-2.2,1l-4.5,1.8l-0.2-1l0.3,0l-0.2,1c-1.3-0.5-2.6-1-3.9-1.6l-0.5-0.2l-0.5-0.2l-0.9-0.5l-1.9-1l0,0l0,0
				l-1.8-1.1l-0.9-0.6c-0.1-0.1-0.3-0.2-0.4-0.3c-0.2-0.1-0.3-0.2-0.5-0.3c-0.6-0.4-1.1-0.9-1.7-1.3l-1.7-1.2l0,0l0,0l-1.5-1.3
				l-1.5-1.4c-0.5-0.4-1-1-1.5-1.4l-0.7-0.7l-0.7-0.8l-1.4-1.5c-0.5-0.5-0.9-1-1.4-1.6c-0.8-1.1-1.7-2.2-2.4-3.3
				c-1.5-2.3-2.9-4.7-4.1-7.1c-0.6-1.2-1.2-2.5-1.7-3.7c-0.5-1.3-1-2.6-1.5-3.8l0,0l0,0l-1-3.2c-0.3-1-0.6-2.1-0.9-3.2
				c-0.5-2.1-1-4.3-1.3-6.5l-0.4-3.3l-0.2-1.6l-0.2-1.6c-0.1-1.1-0.2-2.2-0.2-3.3l-0.1-3.3l0-1.7l0.1-1.6l0.1-3.3
				c0.1-1.1,0.1-2.2,0.2-3.3l0.4-3.3c0.1-1.1,0.4-2.2,0.5-3.3c0.2-1.1,0.4-2.2,0.6-3.2c0.5-2.1,1-4.3,1.7-6.4
				c0.6-2.1,1.4-4.2,2.3-6.2c0.9-2,1.8-4,2.9-5.9c1-2,2.2-3.8,3.4-5.6c1.3-1.8,2.6-3.5,4.1-5.2c0.7-0.8,1.5-1.6,2.3-2.4
				c0.7-0.8,1.6-1.5,2.4-2.3c0.9-0.7,1.6-1.4,2.6-2.1c0.9-0.6,1.8-1.3,2.7-1.9l2.7-1.8c0.5-0.3,0.9-0.6,1.4-0.9l1.5-0.8l1.5-0.8
				c0.5-0.2,1-0.4,1.5-0.7l3-1.3l0.2,0.8l-0.3,0l0.2-0.8l4.6,1.8l2.3,1l2.2,1.1l2.1,1.2l2.1,1.4l3.9,3l1.9,1.6l1.8,1.7l1.7,1.8
				c0.5,0.6,1,1.2,1.6,1.9c1,1.3,1.9,2.6,2.9,4l2.5,4.2c1.5,2.9,2.8,5.9,3.9,9l1.4,4.7l1.1,4.7C215,232,215.6,238.5,215.6,245z"/>
		</g>
	</g>
</g>
<g>
	<g>
		<path class="st0" d="M99.6,244.9c0,0,0.1,1.5,0.2,4.4c0,0.7,0,1.5,0.1,2.4c0.1,0.9,0.2,1.8,0.3,2.8c0.1,1,0.2,2.1,0.4,3.3
			c0.2,1.2,0.5,2.4,0.7,3.7c1.1,5.2,2.9,11.5,6.4,18c3.4,6.5,8.5,13.3,15.6,19.1c3.5,2.8,7.6,5.3,12.1,7.2c1.1,0.4,2.3,0.9,3.4,1.3
			c1.2,0.3,2.4,0.7,3.6,1c2.5,0.6,5,1,7.6,1.4c5.2,0.6,10.5,0.6,16-0.1c2.7-0.3,5.4-0.9,8.1-1.6c0.2,0,0.3-0.1,0.5-0.1
			c0.1,0,0.1,0,0.2-0.1c0,0,0,0-0.1,0.1c0,0.2,0.1,0.2,0.1,0.2c-0.2-0.1-0.6-0.2-0.9-0.3c-0.3-0.1-0.7-0.2-1.1-0.4l-0.9-0.5
			c-1.3-0.7-2.5-1.4-3.7-2.1c-4.8-3-9.5-6.7-13.5-11c-4-4.4-7.3-9.4-9.6-15c-2.3-5.5-4-11.4-5.1-17.4c-1.1-6-1.8-12.1-1.8-18.2
			c0.1-6.1,0.8-12.2,2.1-18.2c0.6-3,1.4-5.9,2.4-8.8c0.5-1.4,1-2.9,1.5-4.3c0.6-1.4,1.2-2.8,1.9-4.1c2.7-5.4,6.3-10.3,10.5-14.5
			c4.2-4.1,9.1-7.5,14.4-9.9c1.3-0.6,2.6-1.1,4-1.6c0.3-0.1,0.7-0.2,1-0.3c0.1,0,0.1-0.1,0.2-0.1c0,0,0,0,0,0c0,0-0.1,0.1-0.1,0.2
			c0,0.2,0.1,0.3,0.1,0.3c0,0,0,0,0,0c0,0-0.1,0-0.2-0.1c-0.6-0.2-1.3-0.4-2-0.5c-2.8-0.6-5.4-1.3-8.1-1.6
			c-5.4-0.7-10.8-0.4-15.9,0.4c-5.1,0.9-10,2.2-14.5,4.1c-4.5,1.9-8.6,4.3-12.3,7c-7.3,5.4-12.6,12.1-15.8,18.7
			c-1.6,3.3-2.7,6.6-3.6,9.7c-0.9,3.1-1.6,6-2,8.6c-1,5.2-1.5,9.4-1.8,12.2C99.7,243.4,99.6,244.9,99.6,244.9z M99.5,244.9
			c0,0,0.1-1.5,0.3-4.4c0.3-2.8,0.7-7,1.7-12.3c0.5-2.6,1.1-5.5,2-8.6c0.8-3.1,1.9-6.4,3.5-9.8c3.2-6.8,8.4-13.6,15.8-19.2
			c3.7-2.8,7.8-5.2,12.3-7.2c4.6-2,9.5-3.3,14.7-4.3c5.2-0.8,10.7-1.2,16.2-0.5c2.8,0.3,5.5,1,8.2,1.6c0.7,0.2,1.4,0.3,2.1,0.5
			c0.1,0,0.2,0.1,0.3,0.1c0.1,0.1,0.1,0.1,0.2,0.2c0.1,0.1,0.2,0.2,0.2,0.5c0,0.3-0.2,0.4-0.2,0.5c-0.1,0.1-0.1,0.1-0.2,0.1
			c-0.1,0.1-0.2,0.1-0.3,0.1c-0.4,0.1-0.7,0.2-1,0.4c-1.3,0.4-2.6,1-3.9,1.6c-5.1,2.3-9.9,5.6-14.1,9.7c-4.2,4.1-7.7,8.9-10.4,14.2
			c-0.7,1.3-1.3,2.7-1.9,4.1c-0.6,1.3-1.1,2.8-1.5,4.2c-1,2.8-1.8,5.8-2.4,8.7c-1.3,5.9-2.1,11.9-2.2,18c-0.1,6.1,0.5,12.1,1.6,18.1
			c1.1,5.9,2.7,11.8,5,17.3c2.3,5.5,5.7,10.5,9.6,14.8c4,4.3,8.6,7.9,13.4,10.8c1.2,0.7,2.5,1.4,3.7,2.1l0.9,0.5
			c0.3,0.1,0.6,0.2,0.9,0.3c0.4,0.1,0.6,0.1,1.1,0.3c0,0,0.3,0.1,0.2,0.4c-0.1,0.2-0.2,0.2-0.2,0.3c-0.1,0.1-0.2,0.1-0.3,0.1
			c-0.2,0.1-0.3,0.1-0.5,0.1c-2.7,0.7-5.5,1.3-8.2,1.7c-5.5,0.7-10.9,0.8-16.1,0.2c-2.6-0.3-5.2-0.7-7.7-1.3c-1.2-0.3-2.5-0.7-3.7-1
			c-0.6-0.1-1.2-0.4-1.8-0.6c-0.6-0.2-1.2-0.5-1.7-0.7c-4.6-2-8.7-4.5-12.3-7.4c-7.1-5.9-12.1-12.9-15.5-19.5
			c-3.4-6.6-5.1-13-6.2-18.2c-0.2-1.3-0.5-2.5-0.7-3.7c-0.2-1.2-0.3-2.3-0.4-3.3c-0.1-1-0.2-2-0.3-2.9c-0.1-0.9-0.1-1.7-0.1-2.4
			C99.6,246.4,99.5,244.9,99.5,244.9z"/>
	</g>
	<g>
		<g>
			<path class="st0" d="M99.7,244.9c0.1,2.4,0.2,4.8,0.3,7.2l0.4,3.6c0.1,1.2,0.3,2.4,0.5,3.5c0.5,2.3,0.9,4.7,1.6,7
				c0.7,2.3,1.4,4.6,2.3,6.8c1.8,4.4,4,8.7,6.8,12.6c2.7,3.9,5.9,7.5,9.4,10.7c1.8,1.6,3.6,3.1,5.6,4.4c2,1.3,4,2.5,6.1,3.6
				c1.1,0.5,2.1,1,3.2,1.4c1.1,0.4,2.2,0.9,3.3,1.2c1.1,0.3,2.3,0.7,3.4,1c1.2,0.3,2.3,0.5,3.5,0.7c9.3,1.7,19.1,1.3,28.3-1.1l0,0
				l0.2-0.1l-0.2,0.3c0,0,0,0,0,0.1c0,0,0,0.1,0.1,0.2c0.1,0.1,0.2,0.1,0.3,0c0.1,0,0.1,0,0.1-0.1c0,0,0,0,0.1-0.1l0,0l0,0l0,0.1
				l0-0.1c0,0,0,0,0,0l-0.3,0.5c-0.4-0.1-0.7-0.2-1.2-0.4l-0.6-0.2l-0.1-0.1l-0.1,0l-0.1,0l-0.3-0.1l-0.6-0.3
				c-0.2-0.1-0.4-0.2-0.6-0.3l-1.1-0.6c-1.4-0.8-2.8-1.6-4.2-2.6c-2.7-1.8-5.3-3.9-7.7-6.1c-2.4-2.2-4.7-4.6-6.6-7.2
				c-2-2.6-3.8-5.4-5.2-8.3c-1.5-2.9-2.7-6-3.7-9.1c-1-3.1-1.9-6.3-2.6-9.5c-0.7-3.2-1.3-6.4-1.6-9.7c-0.4-3.2-0.6-6.5-0.6-9.8
				c0-6.6,0.7-13.1,2.1-19.5c0.7-3.2,1.5-6.4,2.6-9.5l0.8-2.3c0.2-0.4,0.3-0.7,0.4-1.2l0.5-1.1c0.7-1.5,1.3-3,2.1-4.5
				c1.6-2.9,3.4-5.7,5.4-8.2c2.1-2.6,4.3-5,6.8-7.1c2.5-2.1,5.2-4.1,8.1-5.7c1.4-0.8,2.9-1.6,4.4-2.2l2.3-0.9l1.2-0.5
				c0.4-0.1,0.8-0.3,1.1-0.4l0.6,0.9c0,0,0,0,0-0.1l0,0c0,0,0,0,0,0c0,0,0,0,0,0c0,0,0-0.1,0-0.1l-0.5,0.9l-1.7-0.4
				c-0.5-0.1-1.2-0.3-1.8-0.4c-1.2-0.3-2.4-0.5-3.5-0.8c-2.3-0.5-4.7-0.7-7.1-0.8c-2.4-0.1-4.8-0.1-7.2,0.2
				c-2.4,0.2-4.8,0.6-7.1,1.1c-2.4,0.5-4.7,1.1-7,1.8c-2.3,0.8-4.5,1.6-6.7,2.6c-4.4,2-8.5,4.5-12.3,7.5c-3.8,3-7.1,6.5-9.9,10.4
				c-1.4,2-2.6,4-3.8,6.2c-1.1,2.1-2,4.4-2.8,6.7c-0.8,2.3-1.5,4.6-2.1,6.9c-0.6,2.3-1,4.7-1.5,7.1c-0.4,2.4-0.8,4.8-1.1,7.2
				C100,240.1,99.9,242.5,99.7,244.9z M99.6,244.9c0.2-2.4,0.4-4.8,0.7-7.2c0.3-2.4,0.6-4.8,1-7.2c0.4-2.4,0.8-4.8,1.4-7.1
				c0.6-2.4,1.2-4.7,2-7c0.8-2.3,1.7-4.6,2.7-6.8c1.1-2.2,2.3-4.3,3.7-6.3c2.8-4,6.1-7.6,9.9-10.7c3.8-3.1,7.9-5.7,12.3-7.8
				c2.2-1,4.5-1.9,6.8-2.7c2.3-0.8,4.7-1.4,7.1-1.9c2.4-0.5,4.8-0.9,7.2-1.1c2.4-0.2,4.9-0.3,7.3-0.2c2.4,0.1,4.9,0.3,7.3,0.8
				c1.2,0.2,2.4,0.5,3.6,0.8c0.6,0.1,1.2,0.2,1.8,0.4l1.8,0.4l-0.5,0.9c-0.2-0.2-0.2-0.4-0.2-0.6l0-0.1l0-0.1c0-0.1,0-0.1,0.1-0.2
				c0-0.1,0.1-0.2,0.2-0.3l0.6,0.9c-0.5,0.2-0.8,0.3-1.2,0.4l-1.1,0.4l-2.3,0.9c-1.5,0.6-2.9,1.4-4.3,2.1c-2.8,1.6-5.5,3.4-7.9,5.5
				c-2.5,2.1-4.7,4.4-6.7,7c-2,2.5-3.8,5.2-5.4,8.1c-0.8,1.4-1.4,2.9-2.1,4.4l-0.5,1.1c-0.2,0.3-0.3,0.7-0.4,1.1l-0.9,2.3
				c-1.1,3-2,6.2-2.7,9.4c-1.4,6.3-2.2,12.8-2.3,19.3c0,3.3,0.2,6.5,0.5,9.7c0.3,3.2,0.9,6.4,1.6,9.6c0.7,3.2,1.5,6.3,2.5,9.4
				c1,3.1,2.2,6.2,3.6,9c1.5,2.9,3.2,5.6,5.3,8.2c2,2.6,4.2,4.9,6.6,7.1c2.4,2.2,5,4.2,7.7,6c1.3,0.9,2.8,1.7,4.2,2.5
				c1.4,0.9,2.8,1.6,4.4,2l-0.3,0.5c-0.1-0.1-0.2-0.3-0.2-0.4l0,0l0,0l0-0.1l0-0.1c0,0,0,0,0-0.1c0,0,0,0,0.1-0.1c0,0,0,0,0.1-0.1
				c0.1,0,0.2,0,0.3,0c0.2,0.1,0.1,0.2,0.1,0.2c0,0,0,0,0,0.1l0,0.2l-0.2,0.1l-0.2,0.1l0,0l0,0c-9.3,2.5-19.1,3-28.6,1.3
				c-1.2-0.2-2.4-0.4-3.5-0.7c-1.2-0.3-2.3-0.6-3.5-0.9c-1.2-0.3-2.3-0.8-3.4-1.2c-1.1-0.4-2.2-1-3.3-1.5c-2.2-1.1-4.2-2.3-6.2-3.7
				c-2-1.4-3.9-2.9-5.6-4.5c-3.5-3.3-6.7-6.9-9.4-10.9c-2.7-4-4.9-8.3-6.6-12.8c-0.9-2.2-1.6-4.5-2.2-6.8c-0.6-2.3-1.1-4.7-1.6-7
				c-0.3-1.2-0.4-2.4-0.5-3.5l-0.4-3.6C99.7,249.7,99.6,247.3,99.6,244.9L99.6,244.9L99.6,244.9z"/>
			<path class="st0" d="M99.5,244.9c0.2-2.5,0.3-5,0.6-7.4c0.3-2.5,0.6-4.9,1-7.4c0.4-2.5,0.9-4.9,1.5-7.3c0.6-2.4,1.2-4.8,2-7.2
				c0.8-2.4,1.7-4.7,2.8-6.9c1.1-2.2,2.4-4.4,3.8-6.4c1.4-2.1,3-4,4.7-5.8c1.7-1.8,3.5-3.5,5.5-5.1c3.9-3.1,8.2-5.8,12.8-7.9
				c4.6-2.1,9.4-3.5,14.3-4.4c2.5-0.4,4.9-0.8,7.4-0.9c2.5-0.1,5-0.1,7.5,0.1c2.5,0.2,5,0.5,7.4,1.1l3.7,0.8l1.8,0.5
				c0.3,0.1,0.3,0.1,0.5,0.2l0.2,0.1c0.1,0.1,0.2,0.2,0.2,0.3c0.2,0.4,0.1,1-0.2,1.2l0,0l0,0l-0.2,0.1l0,0l0,0
				c-3.1,1.2-6.1,2.3-8.9,3.9c-2.8,1.6-5.5,3.4-7.9,5.5c-2.5,2.1-4.7,4.4-6.7,6.9c-2,2.5-3.9,5.2-5.4,8c-0.8,1.4-1.4,2.9-2.1,4.4
				c-0.7,1.5-1.3,2.9-1.8,4.5c-1.1,3.1-1.9,6.2-2.6,9.3c-0.7,3.2-1.2,6.3-1.6,9.5c-0.4,3.2-0.6,6.4-0.6,9.7c0,3.2,0.2,6.5,0.6,9.7
				c0.4,3.2,0.9,6.4,1.6,9.5c0.7,3.2,1.5,6.3,2.5,9.3c1,3.1,2.2,6.1,3.7,8.9c1.5,2.8,3.2,5.6,5.2,8.1c2,2.5,4.2,4.8,6.6,7
				c2.4,2.1,5,4.1,7.7,5.8c0.7,0.4,1.4,0.9,2,1.3l2.1,1.2l1.1,0.6l0.3,0.1l0.1,0.1l0.1,0.1l0.5,0.3l0.2,0.1l0.3,0.1l0.6,0.2l1.1,0.4
				l0,0l0,0c0.3,0.1,0.5,0.4,0.5,0.8c0,0.3-0.1,0.6-0.4,0.8c-0.1,0-0.1,0.1-0.2,0.1l-0.1,0l-0.2,0.1l-0.5,0.1l-1.6,0.4
				c-1.1,0.3-2.1,0.5-3.2,0.7c-2.1,0.4-4.3,0.7-6.5,0.9c-4.4,0.4-8.7,0.4-13.1-0.1c-2.2-0.2-4.3-0.6-6.5-1l-1.6-0.4l-1.6-0.4
				l-1.6-0.4l-0.4-0.1l-0.1,0l-0.1,0l-0.2-0.1l-0.8-0.3c-4.1-1.5-8-3.6-11.6-6.1c-3.6-2.5-6.8-5.5-9.7-8.8
				c-2.9-3.3-5.4-6.8-7.5-10.6c-2.1-3.8-3.8-7.8-5.2-12c-0.7-2.1-1.3-4.2-1.8-6.3c-0.5-2.1-0.9-4.2-1.3-6.4l0,0l0,0l-0.4-3.2
				l-0.2-1.6c0-0.5-0.1-1.1-0.2-1.6L99.5,244.9L99.5,244.9z M99.6,244.9l0.3,6.5c0,0.5,0.1,1.1,0.2,1.6l0.2,1.6l0.4,3.2l0,0
				c0.5,2.1,0.9,4.2,1.4,6.4c0.5,2.1,1.1,4.2,1.8,6.2c1.4,4.1,3.2,8.1,5.3,11.8c2.2,3.7,4.7,7.2,7.6,10.4c2.9,3.2,6.1,6.1,9.7,8.5
				c3.6,2.4,7.4,4.4,11.5,5.8l0.8,0.3l0.2,0.1c0,0,0.1,0,0,0l0.1,0l0.4,0.1l1.6,0.4l1.6,0.4l1.6,0.3c2.1,0.4,4.2,0.8,6.4,1
				c4.3,0.5,8.6,0.5,12.9,0.1c2.1-0.2,4.3-0.5,6.4-0.9c1.1-0.2,2.1-0.4,3.2-0.7l1.6-0.4l0.2-0.1l0.1,0l0,0l0,0c0,0,0.1,0,0,0
				l0.2-0.1l0.1,0l0,0c-0.1,0-0.1,0.2,0,0.2l0.1,0l-1.2-0.4l-0.6-0.2l-0.3-0.1l-0.1,0l0,0l-0.1,0l-0.1-0.1l-0.5-0.3l-0.1-0.1
				l-0.2-0.1l-0.3-0.2l-1.1-0.6l-2.1-1.2c-0.7-0.4-1.4-0.9-2.1-1.3c-2.7-1.8-5.3-3.8-7.7-6c-2.4-2.2-4.7-4.5-6.7-7.1
				c-2-2.6-3.8-5.3-5.3-8.2c-1.5-2.9-2.6-6-3.6-9.1c-1-3.1-1.8-6.2-2.5-9.4c-0.6-3.2-1.2-6.4-1.5-9.6c-0.3-3.2-0.5-6.5-0.5-9.7
				c0-3.3,0.3-6.5,0.7-9.7c0.4-3.2,1-6.4,1.7-9.6c0.7-3.2,1.6-6.3,2.7-9.4c0.5-1.5,1.1-3.1,1.9-4.5c0.7-1.5,1.3-3,2.1-4.4
				c1.6-2.8,3.3-5.6,5.4-8.1c2-2.5,4.3-4.9,6.7-7c2.5-2.1,5.1-4,8-5.6c2.8-1.7,5.9-2.8,8.8-4l0,0l0.2-0.1l0,0
				c0.1-0.1,0.2-0.3,0.1-0.5c0,0-0.1-0.1-0.1-0.1l-0.2-0.1c0,0-0.3-0.2-0.3-0.1l-1.8-0.5l-3.6-0.8c-2.4-0.5-4.9-0.9-7.3-1
				c-2.5-0.2-4.9-0.2-7.4,0c-2.5,0.2-4.9,0.5-7.3,1c-2.4,0.5-4.8,1.1-7.2,1.8c-2.4,0.7-4.7,1.6-6.9,2.6c-4.5,2-8.7,4.6-12.6,7.7
				c-3.9,3.1-7.4,6.6-10.2,10.7c-1.4,2-2.8,4.1-3.9,6.3c-1.1,2.2-2.1,4.5-2.9,6.8c-0.8,2.3-1.5,4.7-2.1,7.1
				c-0.6,2.4-1.1,4.8-1.5,7.3c-0.4,2.4-0.8,4.9-1.1,7.4C99.9,240,99.7,242.4,99.6,244.9z"/>
		</g>
	</g>
</g>
</svg>
