<?xml version="1.0" encoding="utf-8"?>
<!-- Generator: Adobe Illustrator 19.2.0, SVG Export Plug-In . SVG Version: 6.00 Build 0)  -->
<svg version="1.1" xmlns="http://www.w3.org/2000/svg" xmlns:xlink="http://www.w3.org/1999/xlink" x="0px" y="0px"
	 viewBox="0 0 500 500" style="enable-background:new 0 0 330 330;" xml:space="preserve">
<style type="text/css">
	.st0{fill:none;}
</style>
<g id="Слой_2">
	<g>
		<path class="st0" d="M86.9,281.1c-12.5-3.5-34.7-11.6-49.4-25.2c-10.3-9.5-18.8-20.5-24.3-33.2c-5.5-12.7-9.3-28.2-9.7-43.3
			c-0.4-15.1,1.6-28.9,7-44.9c5.2-15.4,12.5-29.6,21.5-41.3c9-11.8,18.1-20,29.6-27c11.4-7,25.4-12.4,38.4-14.1
			c13-1.7,27.9-2.2,61.5,10.9c13.3,5.2,25,11.9,34.2,21.8c2.8,3.1,4.5,5,6.7,8.4c2.1-6.2,31.2-92,31.2-92l93.4,31.5l-70.3,207.5
			c-2.4,7.2-3.1,12.5-1.9,16c1.2,3.5,4.3,6.4,9.5,8.8l-20.7,61c-19,0.3-33.7-3.9-41.4-6c-19.7-5.4-44.6-13.6-48.6-37
			c0,0-2.3,2.4-16.6,3.6C119.1,288.4,105.1,286.2,86.9,281.1z M137.3,226.6c1.3,0.4,2.3,0.7,3.3,1c2.1-0.7,12-3.8,21.5-13.8
			l14.9-43.9c-0.5-9.6-1.9-15-4.8-22.3c-2.2-5.5-5.8-10.7-6.8-12c-0.2-0.1-0.5-0.2-0.7-0.2c-5.6-1.9-11.1-2.4-16.6-1.6
			c-5.5,0.8-10.6,2.8-15.4,5.9c-4.8,3.1-9.1,7.1-13,12.1c-3.9,4.9-6.9,10.6-9.1,16.9c-4.5,13.3-4.3,25.2,0.6,35.8
			C116.1,215,124.8,222.4,137.3,226.6z"/>
	</g>
</g>
<g id="Слой_4">
	<g>
		<path class="st0" d="M72.9,276.1c-14.4-4.9-26.7-12.1-36.9-21.6c-10.3-9.6-18.1-20.7-23.6-33.6C7,208.1,4,194.3,3.6,179.4
			c-0.5-14.8,2-30.1,7.3-45.8C16,118.5,23.1,105,32.1,93.2c9-11.8,19.3-21.1,30.9-28c11.5-6.9,23.9-11.3,37.1-13
			c13.2-1.8,26.6-0.3,40.2,4.3c14.6,5,26.7,12.9,36.2,23.8c9.5,10.9,15.4,23.3,17.9,37.2L233.7,1.4L297.5,23l-74.4,219.5
			c-2.2,6.4-2.7,11.2-1.5,14.4c1.1,3.2,4.1,5.9,9,8.2L212.3,319c-6.3-0.7-11.7-1.5-16-2.5c-4.4-1-8.5-2.2-12.2-3.5
			c-11.2-3.8-19.4-9.2-24.8-16.2c-5.3-7-7.1-15.1-5.1-24.2l2.5-11.2c-11.9,10.5-25.2,16.8-40,18.9C101.9,282.4,87.3,281,72.9,276.1z
			 M108.3,228.1c8.8,3,18.1,3.2,28,0.8c9.9-2.4,18.5-7.5,25.8-15.1l14.9-43.9c-0.4-12-3.9-22.9-10.5-32.7
			c-6.6-9.8-14.7-16.3-24.3-19.6c-6.9-2.3-13.8-3-20.5-1.8c-6.8,1.1-13.1,3.5-19.1,7.1c-6,3.6-11.2,8.4-15.7,14.2
			c-4.5,5.9-8,12.6-10.6,20c-2.6,7.7-3.8,15.3-3.5,22.8c0.3,7.5,1.8,14.4,4.6,20.7c2.8,6.3,6.8,11.8,12.2,16.6
			C94.9,222,101.1,225.6,108.3,228.1z"/>
	</g>
</g>
</svg>
