<?xml version="1.0" encoding="utf-8"?>
<!-- Generator: Adobe Illustrator 19.2.0, SVG Export Plug-In . SVG Version: 6.00 Build 0)  -->
<svg version="1.1" id="Слой_1" xmlns="http://www.w3.org/2000/svg" xmlns:xlink="http://www.w3.org/1999/xlink" x="0px" y="0px"
	 viewBox="0 0 331.8 385" style="enable-background:new 0 0 331.8 385;" xml:space="preserve">
<style type="text/css">
	.st0{fill:#FFFFFF;}
	.st1{fill:#666766;}
	.st2{fill:none;stroke:#666766;stroke-miterlimit:10;}
</style>
<title>h-new</title>
<g>
	<path class="st0" d="M0.4,4.7v378.6c0,0.2,0.2,0.3,0.4,0.3h139.6c0.2,0,0.3-0.1,0.3-0.3l0,0c0,0,0-111.2,0-133.8
		c0-0.7,0.3-22.9,8-39.6c6.4-13.9,19.5-22.9,26.3-23.3c2.8-0.2,12.3,5.6,18.3,16.7c4.2,7.6,6.4,17.8,6.8,30.4
		c0.4,16.4,0.1,35.5,0.1,54.3c0,48.8-0.5,96.6-0.5,96.6l131.8-0.2c0,0,0.5-122.3,0-154.2c-0.2-16.8,0.1-30.8-3.4-47.1
		c-4.8-22.9-17.2-41.4-27.6-51.4c-14.4-13.9-24.7-23.4-43.3-29.9c-25.3-8.8-46-7.9-63.8-7.9c-34.3,0-56.6,12.3-56.6,12.3
		S137,9.9,137,4.7s-1-4.8-1,0v102.6c19-8.4,39.7-12.7,60.5-12.4c34.5,0.6,66.9-1.2,104.5,39.2c8.6,9.2,18.9,20.5,24.9,45.6
		c1.8,7.3,2.9,14.7,3.3,22.2c1.4,23.8,1,161.8,0.9,181.2l-128.9-0.2c0,0,0.9-96.4,0.3-148.1c-0.2-16.3-4.4-26.6-6-30.2
		c-6-13.7-19.1-19.5-20.4-19.4c-7.2,0.5-21.1,8.8-28.1,24.2c-7.2,15.7-7.5,38.4-7.5,39.7l-0.1,133.3c0.1,0.1,0,0.2-0.2,0.2
		L2.3,382.2c-0.1,0-0.2-0.1-0.2-0.2c0,0,0,0,0,0c0-10-1-371-1-376.6S0.4,3.5,0.4,4.7z"/>
	<path class="st1" d="M0.4,4.7l0.2,234.5l0.1,117.2V383c0,0.1,0,0.4,0,0.3h1.9h29.3h58.6h29.3h20.4c0.1,0-0.1,0-0.1,0
		c0,0-0.1,0.1-0.1,0.1v-133c0-2.5,0.2-4.9,0.3-7.3c0.4-4.9,1.1-9.7,2-14.6c0.9-4.8,2.2-9.6,3.9-14.2c0.4-1.2,0.9-2.3,1.4-3.4
		c0.5-1.1,1-2.3,1.6-3.3c1.2-2.2,2.5-4.3,4-6.2c3-3.9,6.5-7.4,10.5-10.3c2-1.4,4.2-2.7,6.5-3.6c1.2-0.5,2.4-0.8,3.6-1.1
		c0.7-0.1,1.3-0.1,2,0c0.6,0.1,1.2,0.3,1.8,0.6c2.2,1.1,4.3,2.4,6.2,4.1c1.9,1.6,3.6,3.4,5.2,5.3c3.1,3.8,5.6,8.2,7.3,12.8
		c3.4,9.3,4.1,19.2,4.2,29s0.1,19.5,0,29.3s-0.1,19.5-0.1,29.3l-0.2,29.1c-0.1,19.5-0.2,39.1-0.4,58.6l-0.4-0.4l131.8-0.1l-0.3,0.3
		c0.1-36.4,0.2-72.8,0.2-109.2l0-27.2c0-9.1-0.1-18.2-0.2-27.3c0.1-9.1-0.4-18.2-1.5-27.2c-0.6-4.5-1.4-9-2.5-13.4
		c-1.1-4.4-2.5-8.8-4.1-13c-3.3-8.5-7.7-16.5-13-23.9c-2.7-3.7-5.6-7.2-8.8-10.4c-3.2-3.2-6.5-6.3-9.9-9.4
		c-6.7-6.1-13.8-11.9-21.9-16.1s-16.8-7-25.6-9.2c-4.4-1-8.9-1.9-13.4-2.5c-4.5-0.6-9-1-13.6-1.2c-9.1-0.4-18.2-0.3-27.3-0.2
		c-9.1,0.2-18.1,1.4-27,3.4c-4.4,1-8.8,2.2-13.1,3.7c-4.3,1.4-8.5,3.2-12.6,5.2l-0.3,0.2v-0.3l0.1-53l0-26.5V13.5V6.9
		c0-1.1,0-2.2,0-3.3c0-0.5-0.1-1.1-0.1-1.6c0-0.3-0.1-0.5-0.2-0.7c0,0,0-0.1,0-0.1c0,0,0.1,0,0.1,0c0,0,0.1,0,0.1,0
		c0,0.1-0.1,0.2-0.1,0.3c-0.2,1.1-0.3,2.1-0.3,3.2v23.2v26.5v53l-0.5-0.3c4.1-1.9,8.4-3.6,12.7-5c4.3-1.4,8.7-2.7,13.1-3.7
		c8.8-2.1,17.8-3.4,26.9-3.8c4.5-0.2,9.1-0.1,13.6,0s9,0.1,13.6,0.3c9.1,0.2,18.1,1.2,27,3.1c8.9,1.9,17.5,5.1,25.5,9.4
		c8,4.4,15.4,9.6,22.2,15.7c3.4,3,6.7,6.2,9.8,9.5s6.2,6.6,9,10.2c5.7,7.1,10.1,15.2,13.2,23.7c3.1,8.5,5.3,17.4,6.5,26.4
		c0.6,4.5,0.9,9.1,1,13.6s0.3,9.1,0.3,13.6c0.2,9,0.2,18.1,0.3,27.2l0.2,27.2v54.3l-0.2,54.3v0.5h-0.4L201,383.3h-0.5v-0.5
		c0.3-35,0.4-70.1,0.5-105.1l-0.1-26.3l-0.1-13.1c0-2.2,0-4.4-0.1-6.6s-0.3-4.3-0.5-6.5c-0.5-4.3-1.3-8.6-2.6-12.8
		c-0.6-2.1-1.3-4.1-2.2-6.2c-3.3-8.1-9.2-14.8-16.8-19.1c-0.9-0.5-1.9-1-2.9-1.4c-0.2-0.1-0.5-0.2-0.7-0.2c-0.2,0-0.5,0-0.7,0
		c-0.5,0.1-1,0.2-1.5,0.3c-4.2,1.2-8.1,3.1-11.4,5.8c-3.4,2.6-6.5,5.8-9.1,9.2c-2.6,3.5-4.7,7.3-6.2,11.4c-1.5,4.1-2.7,8.3-3.6,12.6
		c-0.9,4.3-1.6,8.6-2,12.9c-0.5,4.3-0.7,8.7-0.7,13.1v26.3v105.1v-0.2c0.1,0.1,0.1,0.3,0,0.4c0,0.2-0.2,0.4-0.4,0.5
		c-0.1,0-0.2,0-0.3,0h-7.7h-8.1l-16.2-0.1l-32.6-0.2l-65-0.3H5.5H2.2c-0.2,0-0.5-0.2-0.5-0.4c0-0.1,0-0.3,0-0.4v-8.4v-16.2
		l-0.2-32.5l-0.1-65L1.2,129.8l-0.1-65L1,32.3V16.1V7.9c0-1.3,0-2.7,0-4.1c0-0.3,0-0.7-0.1-1c0-0.2,0-0.3-0.1-0.5l0,0
		c0,0,0,0.1,0,0.1c0,0.1-0.1,0.2-0.1,0.2C0.5,3.4,0.4,4,0.4,4.7z M0.3,4.7c0-0.7,0.1-1.3,0.3-2c0-0.1,0-0.2,0.1-0.2
		c0-0.1,0-0.1,0.1-0.1c0.1,0,0.1,0,0.2,0.1c0,0,0,0,0,0C1,2.6,1,2.8,1,2.9c0,0.3,0,0.7,0.1,1c0,1.4,0,2.7,0,4.1v8.1l0.1,16.2
		l0.1,32.5l0.2,65l0.5,129.9l0.2,65l0.1,32.5l0.1,16.2v8.1v0.2c0,0.1,0,0.2,0,0.1c0-0.1-0.1-0.1-0.1-0.1h7.3l65,0.1L107,382h16.2
		h8.1h7.7c-0.1,0-0.2,0.2-0.3,0.3c0,0,0,0.1,0,0.1l0,0v-0.2l0-105.1V251c0-4.4,0.2-8.8,0.7-13.2c0.4-4.4,1.1-8.7,2-13
		c0.9-4.3,2.1-8.6,3.6-12.7c1.6-4.1,3.7-8,6.4-11.6c2.6-3.6,5.8-6.7,9.3-9.4c3.5-2.8,7.5-4.8,11.8-6c0.6-0.1,1.1-0.2,1.7-0.3
		c0.3,0,0.7,0,1,0c0.3,0.1,0.6,0.1,0.9,0.2c1,0.4,2,0.9,3,1.4c7.8,4.3,14,11.2,17.3,19.4c0.8,2,1.6,4.1,2.2,6.2
		c1.2,4.3,2.1,8.6,2.6,13c0.3,2.2,0.4,4.4,0.5,6.6s0.1,4.4,0.1,6.6l0.1,13.1l0,26.3c0,35-0.2,70.1-0.5,105.1l-0.5-0.5l128.9,0.2
		l-0.5,0.5l0.2-54.3l-0.1-54.3l-0.1-27.2c-0.1-9-0.2-18.1-0.3-27.2c-0.1-4.5-0.2-9-0.3-13.6c-0.2-4.5-0.4-9-1-13.5
		c-1.2-8.9-3.3-17.7-6.3-26.2c-3.1-8.5-7.5-16.4-13.1-23.5c-2.8-3.5-5.9-6.8-9-10.1s-6.3-6.4-9.7-9.4c-6.7-6-14.1-11.3-22-15.6
		c-7.9-4.3-16.4-7.4-25.3-9.4c-8.8-1.8-17.8-2.9-26.9-3.1c-4.5-0.2-9-0.2-13.6-0.3s-9-0.2-13.5,0c-9,0.4-18,1.6-26.8,3.7
		c-4.4,1-8.7,2.2-13,3.7c-4.3,1.4-8.5,3-12.6,4.9l-0.5,0.2v-0.6v-53V27.8V4.7c0-1.1,0.1-2.3,0.3-3.4c0-0.2,0.1-0.3,0.2-0.5
		c0.1-0.1,0.2-0.1,0.3-0.1c0.1,0,0.2,0,0.3,0.1c0.1,0.1,0.1,0.2,0.1,0.3c0.1,0.3,0.2,0.6,0.2,0.9c0.1,0.6,0.1,1.1,0.1,1.7
		c0,1.1,0,2.2,0,3.3v6.6v13.2L137,53.3l-0.2,53l-0.3-0.2c4.1-2.1,8.3-3.8,12.6-5.2c4.3-1.5,8.7-2.7,13.2-3.7c8.9-2,18-3.1,27.1-3.3
		c9.1-0.1,18.2-0.2,27.3,0.2c4.5,0.2,9.1,0.6,13.6,1.2s9,1.5,13.4,2.5c8.8,2.2,17.6,4.9,25.7,9.2s15.3,10,22,16.1
		c3.3,3.1,6.6,6.2,9.9,9.4c3.2,3.2,6.2,6.7,8.9,10.4c5.3,7.4,9.7,15.5,13.1,24c1.6,4.2,3,8.6,4.1,13c1.1,4.4,1.9,8.9,2.5,13.4
		c1.1,9.1,1.6,18.2,1.6,27.3c0.1,9.1,0.2,18.2,0.3,27.3l0.1,27.3c0,36.4-0.1,72.8-0.2,109.2v0.3h-0.3L199.5,385h-0.4v-0.4
		c0.2-19.5,0.3-39.1,0.4-58.6l0.1-29.3c0-9.8,0-19.5,0.1-29.3c0.1-9.8,0.1-19.5-0.1-29.3c0-4.9-0.3-9.7-0.9-14.6
		c-0.6-4.8-1.7-9.6-3.3-14.2c-1.7-4.6-4.1-8.8-7.1-12.5c-1.5-1.9-3.2-3.6-5.1-5.2c-1.8-1.6-3.8-2.9-6-4c-0.5-0.2-1.1-0.4-1.6-0.6
		c-0.6-0.1-1.1-0.1-1.7,0c-1.2,0.2-2.3,0.5-3.4,1c-2.2,0.9-4.3,2.1-6.3,3.5c-3.9,2.8-7.4,6.2-10.4,10.1c-1.5,1.9-2.8,4-3.9,6.1
		c-0.6,1.1-1.1,2.2-1.5,3.3c-0.5,1.1-1,2.2-1.4,3.4c-1.6,4.6-2.9,9.3-3.8,14.1c-0.9,4.8-1.6,9.6-2,14.5c-0.2,2.4-0.3,4.9-0.3,7.3
		v133.2c0,0.2-0.1,0.4-0.3,0.5c-0.1,0.1-0.3,0.2-0.5,0.2h-20.3H90.5H31.9H2.6H0.8c-0.1,0-0.3,0-0.4-0.1c-0.1-0.1-0.2-0.2-0.3-0.3
		C0,383.5,0,383.3,0,383.1v-26.6l0.1-117.2L0.3,4.7z"/>
</g>
<g>
	<path class="st0" d="M42.5,8.5v366.4c0,6.5-0.8,3-0.8,0.3V7.7C41.7,2.6,42.5,4.6,42.5,8.5z"/>
	<path class="st1" d="M42.5,8.5l0.3,116.9c0.1,17.5,0.1,36.5,0,56.6l-0.1,63.2l-0.1,67.6l0.1,34.8v17.5v8.8c0,1.5,0,3-0.1,4.4
		c0,0.1,0,0.2-0.1,0.3c0.2,0.2-0.7,0.4-0.7,0.1c-0.1-0.2-0.2-0.4-0.2-0.6c0-0.4,0-0.8,0-1.1c-0.1-0.7-0.1-1.5-0.1-2.2l-0.2-69.8
		v-67.6v-63.2c0-20.1,0-39.1,0.1-56.6l0.2-84.7L41.6,9c0-1.4,0-2.6,0.1-3.6c0-0.3,0.1-0.5,0.2-0.8c0,0,0.1-0.1,0.1-0.1
		c0,0,0.1,0,0.1,0.1c0,0.1,0.1,0.1,0.1,0.2c0,0.1,0.1,0.2,0.1,0.3c0.1,0.4,0.1,0.8,0.2,1.2C42.5,7.1,42.5,7.8,42.5,8.5z M42.4,8.5
		c0-0.7,0-1.4-0.1-2.1c0-0.4-0.1-0.8-0.2-1.2c0-0.1-0.1-0.2-0.1-0.3c0-0.1-0.1-0.2-0.1-0.2c-0.1,0.2-0.1,0.5-0.2,0.7
		c-0.1,1-0.1,2.2-0.1,3.6l0.1,23.8l0.2,84.8c0.1,17.5,0.1,36.5,0.1,56.6v63.2V305L42,374.7c0,0.7,0,1.4,0.1,2.2c0,0.4,0.1,0.7,0.2,1
		c0,0.2,0.1,0.3,0.1,0.4c-0.1,0-0.2,0-0.3,0c0-0.1,0-0.1,0-0.2c0.1-1.4,0.2-2.9,0.2-4.3v-8.8v-17.5l0.1-34.8l-0.1-67.6L42.1,182
		c-0.1-20.1,0-39.1,0-56.6L42.4,8.5z"/>
</g>
<g>
	<path class="st0" d="M6.1,0.2c3.7,0,63,0.5,100.8,0.5c12.6,0,23.5-0.1,25.9,0c7.2,0.4,5.1,1.1-3.7,1.1c-7.2,0-114.5-0.6-121.3-0.6
		S2.4,0.2,6.1,0.2z"/>
	<path class="st1" d="M6.1,0.1h11.5c3.7,0,8.1,0,13.2,0L48.1,0c6.3,0,13.1,0,20.3,0.1s14.8,0.2,22.7,0.3s16,0.2,24.3,0.2l12.5-0.1
		h3.1c1,0,2.1,0,3.1,0.1c0.5,0,1,0.1,1.6,0.1l0.8,0.1l0.4,0.1l0.2,0.1l0.1,0.1c0.1,0.1,0.2,0.3,0.1,0.4c-0.1,0.1-0.2,0.2-0.3,0.2
		l-0.2,0.1l-0.4,0.1l-0.8,0.1c-0.5,0-1.1,0.1-1.6,0.1c-2.1,0.1-4.2,0.1-6.3,0.1h-6.3H109H84.7L62,1.9c-7.2,0-14-0.1-20.3-0.2
		L24.5,1.5L11.3,1.3c-1.8,0-3.5,0-4.9-0.1c-0.7,0-1.4-0.1-2-0.1C4.1,1.1,3.8,1,3.5,1C3.4,1,3.2,0.9,3.1,0.9C3,0.8,3,0.8,2.9,0.7
		c0-0.1,0-0.2,0.1-0.2c0.4-0.2,0.8-0.3,1.3-0.3c0.4,0,0.7-0.1,1-0.1L6.1,0.1L6.1,0.1z M6.1,0.2H5.3c-0.7,0-1.5,0.1-2.2,0.3
		c-0.1,0.1-0.1,0.1,0,0.2c0.1,0,0.2,0.1,0.4,0.1c0.3,0.1,0.6,0.1,0.9,0.1C5,1,5.6,1,6.4,1.1c1.4,0,3.1,0,4.9,0L24.5,1l17.2-0.1
		c6.3,0,13.1,0,20.3,0L84.7,1L109,1.2l12.5,0.1l6.3,0.1c2.1,0,4.2,0.1,6.3,0c0.5,0,1,0,1.6-0.1l0.8-0.1l0.4-0.1h0.2c0,0,0.1-0.1,0,0
		c0,0.1,0,0.2,0,0.2l0,0h-0.1l-0.4-0.1l-0.8-0.1c-0.5-0.1-1-0.1-1.5-0.1C133,1,131.9,1,130.9,1h-3.1l-12.4-0.1H91.1
		c-7.9,0-15.5,0.1-22.7,0s-14-0.1-20.3-0.2L30.9,0.5c-5.1-0.1-9.6-0.2-13.2-0.2L6.1,0.2z"/>
</g>
<path class="st2" d="M177.4,184.7c-0.2-0.1-0.3-0.3-0.3-0.5c0-0.1,0.1-0.2,0.3-0.3c4.4-1.1,10.1-2.7,17-2.7c7.8,0,20.8,0.5,31,9.5
	s15.2,22,15.8,44s0.3,148.2,0.3,148.2l-39.4-0.1c0,0,0.1-23.4,0.5-54.5c0.3-27.8,0.6-63.1,0.5-86c0-11.1-1.4-22.2-4.3-32.9
	C194,191.8,181.7,186.1,177.4,184.7z"/>
</svg>
