<?xml version="1.0" encoding="utf-8"?>
<!-- Generator: Adobe Illustrator 19.2.0, SVG Export Plug-In . SVG Version: 6.00 Build 0)  -->
<svg version="1.1" xmlns="http://www.w3.org/2000/svg" xmlns:xlink="http://www.w3.org/1999/xlink" x="0px" y="0px"
	 viewBox="0 0 308 325" style="enable-background:new 0 0 308 325;" xml:space="preserve">
<style type="text/css">
	.st0{fill:none;}
</style>
<g id="Слой_3">
	<g>
		<path class="st0" d="M305.9,271.9l-104.1,21.6l-24.9-121c-2.2-10.6-6.2-17.8-11.9-21.6c-3.9-2.6-7.6-3.9-12.1-4.1
			c-0.4,0.4-3.7,4.8-6.5,9.6c-2.3,3.9-4,8.1-4.8,10.5c-1.5,4.8-1.9,7.3-2.5,11l25.3,123l-101.2,21L2,23.6l101.2-21
			c0,0,16,77.9,18.9,92.1c1.8-1.7,3.5-3.2,5.5-4.7c11-8.6,24.3-13.7,39.4-17.7c19.2-5.1,34.7-6.9,45.2-7.2c9.5-0.3,24,2.9,37.5,12.9
			c7.4,5.5,16.6,18.7,21.8,34.3c3,8.8,5.5,18.7,7.1,26.6L305.9,271.9z"/>
	</g>
</g>
<g id="Слой_4">
	<g>
		<path class="st0" d="M305.9,271.9l-65.4,13.4l-24.8-120.6c-2.9-13.9-7.7-23.6-14.5-29c-6.8-5.4-15-7.1-24.5-5.2
			c-3.8,0.8-7.8,2.5-11.9,5.2c-4.1,2.7-8,6.2-11.5,10.5c-3.5,4.3-6.6,9.1-9.2,14.4c-2.6,5.4-4.3,11.1-5,17.2l25.3,123l-65.4,13.4
			L37.8,16l65.4-13.4l24.6,119.7c5.3-14.4,13.7-26.4,25.2-36.1c11.5-9.6,25-16,40.6-19.2c14.4-3,26.6-2.8,36.5,0.4
			c9.9,3.2,18,8.2,24.4,15c6.4,6.8,11.4,14.9,15,24.2c3.6,9.3,6.4,18.6,8.3,27.9L305.9,271.9z"/>
	</g>
</g>
</svg>
